NotoSansCham-Bold.ufo
<glyph name="numbersign" format="1">
  <advance width="1323"/>
  <unicode hex="0023"/>
  <outline>
    <contour>
      <point x="999" y="844" type="line"/>
      <point x="952" y="612" type="line"/>
      <point x="1210" y="612" type="line"/>
      <point x="1210" y="406" type="line"/>
      <point x="913" y="406" type="line"/>
      <point x="836" y="0" type="line"/>
      <point x="616" y="0" type="line"/>
      <point x="694" y="406" type="line"/>
      <point x="500" y="406" type="line"/>
      <point x="424" y="0" type="line"/>
      <point x="209" y="0" type="line"/>
      <point x="283" y="406" type="line"/>
      <point x="45" y="406" type="line"/>
      <point x="45" y="612" type="line"/>
      <point x="322" y="612" type="line"/>
      <point x="369" y="844" type="line"/>
      <point x="117" y="844" type="line"/>
      <point x="117" y="1053" type="line"/>
      <point x="406" y="1053" type="line"/>
      <point x="483" y="1460" type="line"/>
      <point x="702" y="1460" type="line"/>
      <point x="625" y="1053" type="line"/>
      <point x="823" y="1053" type="line"/>
      <point x="901" y="1460" type="line"/>
      <point x="1116" y="1460" type="line"/>
      <point x="1038" y="1053" type="line"/>
      <point x="1278" y="1053" type="line"/>
      <point x="1278" y="844" type="line"/>
    </contour>
    <contour>
      <point x="539" y="612" type="line"/>
      <point x="735" y="612" type="line"/>
      <point x="782" y="844" type="line"/>
      <point x="586" y="844" type="line"/>
    </contour>
  </outline>
</glyph>
<glyph name="percent" format="1">
  <advance width="1804"/>
  <unicode hex="0025"/>
  <outline>
    <contour>
      <point x="315" y="1024" type="qcurve" smooth="yes"/>
      <point x="315" y="897"/>
      <point x="360" y="772"/>
      <point x="410" y="772" type="qcurve" smooth="yes"/>
      <point x="459" y="772"/>
      <point x="506" y="896"/>
      <point x="506" y="1024" type="qcurve" smooth="yes"/>
      <point x="506" y="1274"/>
      <point x="410" y="1274" type="qcurve" smooth="yes"/>
      <point x="360" y="1274"/>
      <point x="315" y="1151"/>
    </contour>
    <contour>
      <point x="758" y="1026" type="qcurve" smooth="yes"/>
      <point x="758" y="918"/>
      <point x="717" y="746"/>
      <point x="631" y="628"/>
      <point x="499" y="565"/>
      <point x="408" y="565" type="qcurve" smooth="yes"/>
      <point x="323" y="565"/>
      <point x="194" y="628"/>
      <point x="107" y="746"/>
      <point x="63" y="918"/>
      <point x="63" y="1026" type="qcurve" smooth="yes"/>
      <point x="63" y="1134"/>
      <point x="103" y="1304"/>
      <point x="188" y="1421"/>
      <point x="318" y="1483"/>
      <point x="408" y="1483" type="qcurve" smooth="yes"/>
      <point x="494" y="1483"/>
      <point x="625" y="1421"/>
      <point x="713" y="1304"/>
      <point x="758" y="1134"/>
    </contour>
    <contour>
      <point x="1425" y="1462" type="line"/>
      <point x="614" y="0" type="line"/>
      <point x="375" y="0" type="line"/>
      <point x="1186" y="1462" type="line"/>
    </contour>
    <contour>
      <point x="1298" y="440" type="qcurve" smooth="yes"/>
      <point x="1298" y="313"/>
      <point x="1343" y="188"/>
      <point x="1393" y="188" type="qcurve" smooth="yes"/>
      <point x="1442" y="188"/>
      <point x="1489" y="312"/>
      <point x="1489" y="440" type="qcurve" smooth="yes"/>
      <point x="1489" y="690"/>
      <point x="1393" y="690" type="qcurve" smooth="yes"/>
      <point x="1343" y="690"/>
      <point x="1298" y="567"/>
    </contour>
    <contour>
      <point x="1741" y="442" type="qcurve" smooth="yes"/>
      <point x="1741" y="334"/>
      <point x="1700" y="163"/>
      <point x="1614" y="45"/>
      <point x="1482" y="-18"/>
      <point x="1391" y="-18" type="qcurve" smooth="yes"/>
      <point x="1306" y="-18"/>
      <point x="1178" y="45"/>
      <point x="1091" y="163"/>
      <point x="1047" y="334"/>
      <point x="1047" y="442" type="qcurve" smooth="yes"/>
      <point x="1047" y="550"/>
      <point x="1087" y="720"/>
      <point x="1171" y="837"/>
      <point x="1301" y="899"/>
      <point x="1391" y="899" type="qcurve" smooth="yes"/>
      <point x="1477" y="899"/>
      <point x="1608" y="837"/>
      <point x="1696" y="720"/>
      <point x="1741" y="550"/>
    </contour>
  </outline>
</glyph>
<glyph name="ampersand" format="1">
  <advance width="1479"/>
  <unicode hex="0026"/>
  <outline>
    <contour>
      <point x="1475" y="0" type="line"/>
      <point x="1098" y="0" type="line"/>
      <point x="1001" y="100" type="line"/>
      <point x="921" y="45"/>
      <point x="728" y="-20"/>
      <point x="612" y="-20" type="qcurve" smooth="yes"/>
      <point x="492" y="-20"/>
      <point x="297" y="40"/>
      <point x="158" y="149"/>
      <point x="82" y="302"/>
      <point x="82" y="395" type="qcurve" smooth="yes"/>
      <point x="82" y="472"/>
      <point x="119" y="593"/>
      <point x="187" y="691"/>
      <point x="284" y="771"/>
      <point x="344" y="807" type="qcurve"/>
      <point x="306" y="853"/>
      <point x="253" y="938"/>
      <point x="221" y="1021"/>
      <point x="207" y="1104"/>
      <point x="207" y="1149" type="qcurve" smooth="yes"/>
      <point x="207" y="1227"/>
      <point x="268" y="1350"/>
      <point x="377" y="1437"/>
      <point x="528" y="1483"/>
      <point x="618" y="1483" type="qcurve" smooth="yes"/>
      <point x="704" y="1483"/>
      <point x="849" y="1441"/>
      <point x="954" y="1360"/>
      <point x="1014" y="1241"/>
      <point x="1014" y="1165" type="qcurve" smooth="yes"/>
      <point x="1014" y="1096"/>
      <point x="969" y="981"/>
      <point x="893" y="883"/>
      <point x="790" y="801"/>
      <point x="731" y="766" type="qcurve"/>
      <point x="991" y="498" type="line"/>
      <point x="1026" y="564"/>
      <point x="1079" y="710"/>
      <point x="1098" y="784" type="qcurve"/>
      <point x="1415" y="784" type="line"/>
      <point x="1400" y="727"/>
      <point x="1359" y="601"/>
      <point x="1305" y="474"/>
      <point x="1235" y="348"/>
      <point x="1192" y="291" type="qcurve"/>
    </contour>
    <contour>
      <point x="403" y="424" type="qcurve" smooth="yes"/>
      <point x="403" y="380"/>
      <point x="435" y="310"/>
      <point x="492" y="262"/>
      <point x="569" y="236"/>
      <point x="614" y="236" type="qcurve" smooth="yes"/>
      <point x="674" y="236"/>
      <point x="776" y="267"/>
      <point x="819" y="295" type="qcurve"/>
      <point x="510" y="625" type="line"/>
      <point x="459" y="583"/>
      <point x="403" y="487"/>
    </contour>
    <contour>
      <point x="731" y="1124" type="qcurve" smooth="yes"/>
      <point x="731" y="1155"/>
      <point x="711" y="1198"/>
      <point x="678" y="1226"/>
      <point x="637" y="1239"/>
      <point x="616" y="1239" type="qcurve" smooth="yes"/>
      <point x="594" y="1239"/>
      <point x="549" y="1227"/>
      <point x="512" y="1200"/>
      <point x="489" y="1155"/>
      <point x="489" y="1122" type="qcurve" smooth="yes"/>
      <point x="489" y="1070"/>
      <point x="535" y="978"/>
      <point x="575" y="932" type="qcurve"/>
      <point x="652" y="976"/>
      <point x="731" y="1064"/>
    </contour>
  </outline>
</glyph>
<glyph name="quotesingle" format="1">
  <advance width="545"/>
  <unicode hex="0027"/>
  <outline>
    <contour>
      <point x="412" y="1462" type="line"/>
      <point x="371" y="934" type="line"/>
      <point x="174" y="934" type="line"/>
      <point x="133" y="1462" type="line"/>
    </contour>
  </outline>
</glyph>
<glyph name="parenleft" format="1">
  <advance width="694"/>
  <unicode hex="0028"/>
  <outline>
    <contour>
      <point x="82" y="561" type="qcurve" smooth="yes"/>
      <point x="82" y="686"/>
      <point x="118" y="929"/>
      <point x="192" y="1158"/>
      <point x="305" y="1369"/>
      <point x="383" y="1462" type="qcurve"/>
      <point x="633" y="1462" type="line"/>
      <point x="492" y="1269"/>
      <point x="348" y="807"/>
      <point x="348" y="563" type="qcurve" smooth="yes"/>
      <point x="348" y="444"/>
      <point x="384" y="208"/>
      <point x="456" y="-18"/>
      <point x="562" y="-230"/>
      <point x="631" y="-324" type="qcurve"/>
      <point x="383" y="-324" type="line"/>
      <point x="305" y="-234"/>
      <point x="192" y="-28"/>
      <point x="118" y="197"/>
      <point x="82" y="437"/>
    </contour>
  </outline>
</glyph>
<glyph name="parenright" format="1">
  <advance width="694"/>
  <unicode hex="0029"/>
  <outline>
    <contour>
      <point x="612" y="561" type="qcurve" smooth="yes"/>
      <point x="612" y="437"/>
      <point x="576" y="197"/>
      <point x="502" y="-28"/>
      <point x="389" y="-234"/>
      <point x="311" y="-324" type="qcurve"/>
      <point x="63" y="-324" type="line"/>
      <point x="132" y="-230"/>
      <point x="238" y="-18"/>
      <point x="310" y="208"/>
      <point x="346" y="444"/>
      <point x="346" y="563" type="qcurve" smooth="yes"/>
      <point x="346" y="807"/>
      <point x="202" y="1269"/>
      <point x="61" y="1462" type="qcurve"/>
      <point x="311" y="1462" type="line"/>
      <point x="389" y="1369"/>
      <point x="502" y="1158"/>
      <point x="576" y="929"/>
      <point x="612" y="686"/>
    </contour>
  </outline>
</glyph>
<glyph name="plus" format="1">
  <advance width="1128"/>
  <unicode hex="002B"/>
  <outline>
    <contour>
      <point x="455" y="612" type="line"/>
      <point x="88" y="612" type="line"/>
      <point x="88" y="831" type="line"/>
      <point x="455" y="831" type="line"/>
      <point x="455" y="1200" type="line"/>
      <point x="674" y="1200" type="line"/>
      <point x="674" y="831" type="line"/>
      <point x="1040" y="831" type="line"/>
      <point x="1040" y="612" type="line"/>
      <point x="674" y="612" type="line"/>
      <point x="674" y="248" type="line"/>
      <point x="455" y="248" type="line"/>
    </contour>
  </outline>
</glyph>
<glyph name="slash" format="1">
  <advance width="846"/>
  <unicode hex="002F"/>
  <outline>
    <contour>
      <point x="836" y="1462" type="line"/>
      <point x="291" y="0" type="line"/>
      <point x="14" y="0" type="line"/>
      <point x="559" y="1462" type="line"/>
    </contour>
  </outline>
</glyph>
<glyph name="zero" format="1">
  <advance width="1128"/>
  <unicode hex="0030"/>
  <outline>
    <contour>
      <point x="1065" y="731" type="qcurve" smooth="yes"/>
      <point x="1065" y="554"/>
      <point x="1010" y="276"/>
      <point x="889" y="82"/>
      <point x="698" y="-20"/>
      <point x="563" y="-20" type="qcurve" smooth="yes"/>
      <point x="436" y="-20"/>
      <point x="248" y="82"/>
      <point x="124" y="276"/>
      <point x="63" y="554"/>
      <point x="63" y="731" type="qcurve" smooth="yes"/>
      <point x="63" y="908"/>
      <point x="118" y="1188"/>
      <point x="238" y="1382"/>
      <point x="428" y="1485"/>
      <point x="563" y="1485" type="qcurve" smooth="yes"/>
      <point x="689" y="1485"/>
      <point x="877" y="1383"/>
      <point x="1003" y="1189"/>
      <point x="1065" y="909"/>
    </contour>
    <contour>
      <point x="371" y="731" type="qcurve" smooth="yes"/>
      <point x="371" y="481"/>
      <point x="457" y="229"/>
      <point x="563" y="229" type="qcurve" smooth="yes"/>
      <point x="667" y="229"/>
      <point x="758" y="479"/>
      <point x="758" y="731" type="qcurve" smooth="yes"/>
      <point x="758" y="982"/>
      <point x="667" y="1235"/>
      <point x="563" y="1235" type="qcurve" smooth="yes"/>
      <point x="510" y="1235"/>
      <point x="437" y="1171"/>
      <point x="391" y="1045"/>
      <point x="371" y="856"/>
    </contour>
  </outline>
</glyph>
<glyph name="one" format="1">
  <advance width="1128"/>
  <unicode hex="0031"/>
  <outline>
    <contour>
      <point x="817" y="0" type="line"/>
      <point x="508" y="0" type="line"/>
      <point x="508" y="846" type="line" smooth="yes"/>
      <point x="508" y="872"/>
      <point x="509" y="945"/>
      <point x="512" y="1024"/>
      <point x="515" y="1104"/>
      <point x="516" y="1137" type="qcurve"/>
      <point x="511" y="1131"/>
      <point x="487" y="1107"/>
      <point x="457" y="1078"/>
      <point x="425" y="1048"/>
      <point x="410" y="1036" type="qcurve" smooth="yes"/>
      <point x="242" y="901" type="line"/>
      <point x="92" y="1087" type="line"/>
      <point x="563" y="1462" type="line"/>
      <point x="817" y="1462" type="line"/>
    </contour>
  </outline>
</glyph>
<glyph name="three" format="1">
  <advance width="1128"/>
  <unicode hex="0033"/>
  <outline>
    <contour>
      <point x="1006" y="1135" type="qcurve" smooth="yes"/>
      <point x="1006" y="1059"/>
      <point x="957" y="938"/>
      <point x="872" y="847"/>
      <point x="757" y="786"/>
      <point x="690" y="770" type="qcurve"/>
      <point x="690" y="764" type="line"/>
      <point x="867" y="742"/>
      <point x="1049" y="571"/>
      <point x="1049" y="426" type="qcurve" smooth="yes"/>
      <point x="1049" y="330"/>
      <point x="980" y="167"/>
      <point x="837" y="47"/>
      <point x="620" y="-20"/>
      <point x="473" y="-20" type="qcurve" smooth="yes"/>
      <point x="355" y="-20"/>
      <point x="147" y="19"/>
      <point x="57" y="59" type="qcurve"/>
      <point x="57" y="322" type="line"/>
      <point x="102" y="298"/>
      <point x="202" y="262"/>
      <point x="302" y="237"/>
      <point x="399" y="225"/>
      <point x="442" y="225" type="qcurve" smooth="yes"/>
      <point x="528" y="225"/>
      <point x="642" y="257"/>
      <point x="710" y="315"/>
      <point x="739" y="396"/>
      <point x="739" y="444" type="qcurve" smooth="yes"/>
      <point x="739" y="489"/>
      <point x="702" y="562"/>
      <point x="619" y="613"/>
      <point x="485" y="641"/>
      <point x="387" y="641" type="qcurve" smooth="yes"/>
      <point x="283" y="641" type="line"/>
      <point x="283" y="858" type="line"/>
      <point x="385" y="858" type="line" smooth="yes"/>
      <point x="477" y="858"/>
      <point x="599" y="891"/>
      <point x="672" y="948"/>
      <point x="702" y="1024"/>
      <point x="702" y="1067" type="qcurve" smooth="yes"/>
      <point x="702" y="1145"/>
      <point x="605" y="1233"/>
      <point x="500" y="1233" type="qcurve" smooth="yes"/>
      <point x="452" y="1233"/>
      <point x="369" y="1214"/>
      <point x="298" y="1185"/>
      <point x="239" y="1150"/>
      <point x="215" y="1133" type="qcurve"/>
      <point x="59" y="1339" type="line"/>
      <point x="101" y="1370"/>
      <point x="200" y="1422"/>
      <point x="316" y="1461"/>
      <point x="450" y="1483"/>
      <point x="526" y="1483" type="qcurve" smooth="yes"/>
      <point x="634" y="1483"/>
      <point x="811" y="1436"/>
      <point x="937" y="1347"/>
      <point x="1006" y="1218"/>
    </contour>
  </outline>
</glyph>
<glyph name="five" format="1">
  <advance width="1128"/>
  <unicode hex="0035"/>
  <outline>
    <contour>
      <point x="598" y="934" type="qcurve" smooth="yes"/>
      <point x="692" y="934"/>
      <point x="854" y="876"/>
      <point x="974" y="764"/>
      <point x="1042" y="597"/>
      <point x="1042" y="489" type="qcurve" smooth="yes"/>
      <point x="1042" y="370"/>
      <point x="968" y="181"/>
      <point x="824" y="50"/>
      <point x="611" y="-20"/>
      <point x="473" y="-20" type="qcurve" smooth="yes"/>
      <point x="418" y="-20"/>
      <point x="310" y="-10"/>
      <point x="211" y="9"/>
      <point x="122" y="39"/>
      <point x="86" y="59" type="qcurve"/>
      <point x="86" y="326" type="line"/>
      <point x="121" y="306"/>
      <point x="213" y="271"/>
      <point x="312" y="246"/>
      <point x="412" y="231"/>
      <point x="457" y="231" type="qcurve" smooth="yes"/>
      <point x="591" y="231"/>
      <point x="731" y="342"/>
      <point x="731" y="463" type="qcurve" smooth="yes"/>
      <point x="731" y="571"/>
      <point x="594" y="684"/>
      <point x="451" y="684" type="qcurve" smooth="yes"/>
      <point x="425" y="684"/>
      <point x="366" y="678"/>
      <point x="309" y="668"/>
      <point x="257" y="657"/>
      <point x="238" y="651" type="qcurve"/>
      <point x="115" y="717" type="line"/>
      <point x="170" y="1462" type="line"/>
      <point x="942" y="1462" type="line"/>
      <point x="942" y="1200" type="line"/>
      <point x="438" y="1200" type="line"/>
      <point x="414" y="913" type="line"/>
      <point x="446" y="920"/>
      <point x="531" y="934"/>
    </contour>
  </outline>
</glyph>
<glyph name="six" format="1">
  <advance width="1128"/>
  <unicode hex="0036"/>
  <outline>
    <contour>
      <point x="76" y="621" type="qcurve" smooth="yes"/>
      <point x="76" y="726"/>
      <point x="99" y="934"/>
      <point x="158" y="1125"/>
      <point x="259" y="1289"/>
      <point x="414" y="1410"/>
      <point x="631" y="1479"/>
      <point x="776" y="1479" type="qcurve" smooth="yes"/>
      <point x="797" y="1479"/>
      <point x="847" y="1477"/>
      <point x="898" y="1474"/>
      <point x="946" y="1468"/>
      <point x="965" y="1464" type="qcurve"/>
      <point x="965" y="1217" type="line"/>
      <point x="927" y="1226"/>
      <point x="842" y="1237"/>
      <point x="799" y="1237" type="qcurve" smooth="yes"/>
      <point x="664" y="1237"/>
      <point x="490" y="1170"/>
      <point x="388" y="1050"/>
      <point x="345" y="882"/>
      <point x="340" y="780" type="qcurve"/>
      <point x="352" y="780" type="line"/>
      <point x="372" y="816"/>
      <point x="429" y="879"/>
      <point x="505" y="924"/>
      <point x="600" y="950"/>
      <point x="659" y="950" type="qcurve" smooth="yes"/>
      <point x="754" y="950"/>
      <point x="906" y="888"/>
      <point x="1011" y="770"/>
      <point x="1067" y="598"/>
      <point x="1067" y="487" type="qcurve" smooth="yes"/>
      <point x="1067" y="368"/>
      <point x="1000" y="180"/>
      <point x="876" y="49"/>
      <point x="700" y="-20"/>
      <point x="590" y="-20" type="qcurve" smooth="yes"/>
      <point x="482" y="-20"/>
      <point x="294" y="57"/>
      <point x="155" y="215"/>
      <point x="76" y="456"/>
    </contour>
    <contour>
      <point x="584" y="227" type="qcurve" smooth="yes"/>
      <point x="625" y="227"/>
      <point x="692" y="258"/>
      <point x="741" y="321"/>
      <point x="768" y="417"/>
      <point x="768" y="483" type="qcurve" smooth="yes"/>
      <point x="768" y="590"/>
      <point x="679" y="713"/>
      <point x="588" y="713" type="qcurve" smooth="yes"/>
      <point x="542" y="713"/>
      <point x="466" y="677"/>
      <point x="412" y="619"/>
      <point x="383" y="547"/>
      <point x="383" y="510" type="qcurve" smooth="yes"/>
      <point x="383" y="459"/>
      <point x="408" y="358"/>
      <point x="459" y="277"/>
      <point x="534" y="227"/>
    </contour>
  </outline>
</glyph>
<glyph name="eight" format="1">
  <advance width="1128"/>
  <unicode hex="0038"/>
  <outline>
    <contour>
      <point x="565" y="1481" type="qcurve" smooth="yes"/>
      <point x="656" y="1481"/>
      <point x="818" y="1437"/>
      <point x="940" y="1349"/>
      <point x="1012" y="1217"/>
      <point x="1012" y="1128" type="qcurve" smooth="yes"/>
      <point x="1012" y="1062"/>
      <point x="972" y="955"/>
      <point x="902" y="868"/>
      <point x="806" y="800"/>
      <point x="750" y="772" type="qcurve"/>
      <point x="808" y="741"/>
      <point x="919" y="665"/>
      <point x="1005" y="570"/>
      <point x="1057" y="452"/>
      <point x="1057" y="379" type="qcurve" smooth="yes"/>
      <point x="1057" y="288"/>
      <point x="985" y="140"/>
      <point x="855" y="36"/>
      <point x="674" y="-20"/>
      <point x="565" y="-20" type="qcurve" smooth="yes"/>
      <point x="447" y="-20"/>
      <point x="263" y="34"/>
      <point x="137" y="134"/>
      <point x="72" y="280"/>
      <point x="72" y="371" type="qcurve" smooth="yes"/>
      <point x="72" y="446"/>
      <point x="116" y="566"/>
      <point x="192" y="662"/>
      <point x="294" y="736"/>
      <point x="352" y="764" type="qcurve"/>
      <point x="303" y="795"/>
      <point x="217" y="868"/>
      <point x="154" y="957"/>
      <point x="117" y="1065"/>
      <point x="117" y="1130" type="qcurve" smooth="yes"/>
      <point x="117" y="1217"/>
      <point x="190" y="1348"/>
      <point x="314" y="1437"/>
      <point x="476" y="1481"/>
    </contour>
    <contour>
      <point x="358" y="389" type="qcurve" smooth="yes"/>
      <point x="358" y="349"/>
      <point x="384" y="282"/>
      <point x="435" y="234"/>
      <point x="511" y="207"/>
      <point x="561" y="207" type="qcurve" smooth="yes"/>
      <point x="666" y="207"/>
      <point x="770" y="306"/>
      <point x="770" y="387" type="qcurve" smooth="yes"/>
      <point x="770" y="429"/>
      <point x="735" y="496"/>
      <point x="680" y="553"/>
      <point x="610" y="601"/>
      <point x="575" y="623" type="qcurve" smooth="yes"/>
      <point x="553" y="637" type="line"/>
      <point x="509" y="615"/>
      <point x="437" y="564"/>
      <point x="386" y="503"/>
      <point x="358" y="431"/>
    </contour>
    <contour>
      <point x="563" y="1255" type="qcurve" smooth="yes"/>
      <point x="530" y="1255"/>
      <point x="473" y="1235"/>
      <point x="432" y="1197"/>
      <point x="408" y="1141"/>
      <point x="408" y="1106" type="qcurve" smooth="yes"/>
      <point x="408" y="1064"/>
      <point x="433" y="1003"/>
      <point x="476" y="956"/>
      <point x="533" y="919"/>
      <point x="565" y="901" type="qcurve"/>
      <point x="596" y="917"/>
      <point x="652" y="955"/>
      <point x="695" y="1004"/>
      <point x="721" y="1066"/>
      <point x="721" y="1106" type="qcurve" smooth="yes"/>
      <point x="721" y="1141"/>
      <point x="697" y="1197"/>
      <point x="655" y="1235"/>
      <point x="597" y="1255"/>
    </contour>
  </outline>
</glyph>
<glyph name="nine" format="1">
  <advance width="1128"/>
  <unicode hex="0039"/>
  <outline>
    <contour>
      <point x="1055" y="838" type="qcurve" smooth="yes"/>
      <point x="1055" y="733"/>
      <point x="1032" y="524"/>
      <point x="973" y="334"/>
      <point x="872" y="169"/>
      <point x="717" y="49"/>
      <point x="500" y="-20"/>
      <point x="354" y="-20" type="qcurve" smooth="yes"/>
      <point x="333" y="-20"/>
      <point x="283" y="-18"/>
      <point x="232" y="-15"/>
      <point x="184" y="-10"/>
      <point x="166" y="-6" type="qcurve"/>
      <point x="166" y="242" type="line"/>
      <point x="203" y="232"/>
      <point x="288" y="221"/>
      <point x="332" y="221" type="qcurve" smooth="yes"/>
      <point x="467" y="221"/>
      <point x="641" y="288"/>
      <point x="743" y="409"/>
      <point x="786" y="577"/>
      <point x="791" y="678" type="qcurve"/>
      <point x="778" y="678" type="line"/>
      <point x="758" y="642"/>
      <point x="702" y="580"/>
      <point x="626" y="534"/>
      <point x="530" y="508"/>
      <point x="471" y="508" type="qcurve" smooth="yes"/>
      <point x="376" y="508"/>
      <point x="224" y="570"/>
      <point x="119" y="688"/>
      <point x="63" y="860"/>
      <point x="63" y="971" type="qcurve" smooth="yes"/>
      <point x="63" y="1090"/>
      <point x="130" y="1278"/>
      <point x="254" y="1409"/>
      <point x="431" y="1479"/>
      <point x="541" y="1479" type="qcurve" smooth="yes"/>
      <point x="649" y="1479"/>
      <point x="837" y="1402"/>
      <point x="975" y="1244"/>
      <point x="1055" y="1002"/>
    </contour>
    <contour>
      <point x="547" y="1231" type="qcurve" smooth="yes"/>
      <point x="506" y="1231"/>
      <point x="438" y="1201"/>
      <point x="389" y="1138"/>
      <point x="362" y="1041"/>
      <point x="362" y="975" type="qcurve" smooth="yes"/>
      <point x="362" y="869"/>
      <point x="452" y="745"/>
      <point x="543" y="745" type="qcurve" smooth="yes"/>
      <point x="589" y="745"/>
      <point x="665" y="781"/>
      <point x="719" y="839"/>
      <point x="748" y="911"/>
      <point x="748" y="948" type="qcurve" smooth="yes"/>
      <point x="748" y="999"/>
      <point x="723" y="1100"/>
      <point x="672" y="1181"/>
      <point x="597" y="1231"/>
    </contour>
  </outline>
</glyph>
<glyph name="semicolon" format="1">
  <advance width="594"/>
  <unicode hex="003B"/>
  <unicode hex="037E"/>
  <outline>
    <contour>
      <point x="444" y="238" type="line"/>
      <point x="459" y="215" type="line"/>
      <point x="445" y="161"/>
      <point x="406" y="39"/>
      <point x="359" y="-85"/>
      <point x="308" y="-208"/>
      <point x="283" y="-264" type="qcurve"/>
      <point x="63" y="-264" type="line"/>
      <point x="78" y="-203"/>
      <point x="107" y="-71"/>
      <point x="134" y="60"/>
      <point x="156" y="185"/>
      <point x="164" y="238" type="qcurve"/>
    </contour>
    <contour>
      <point x="117" y="969" type="qcurve" smooth="yes"/>
      <point x="117" y="1016"/>
      <point x="144" y="1081"/>
      <point x="192" y="1121"/>
      <point x="256" y="1139"/>
      <point x="293" y="1139" type="qcurve" smooth="yes"/>
      <point x="328" y="1139"/>
      <point x="391" y="1121"/>
      <point x="439" y="1081"/>
      <point x="467" y="1016"/>
      <point x="467" y="969" type="qcurve" smooth="yes"/>
      <point x="467" y="924"/>
      <point x="439" y="859"/>
      <point x="391" y="818"/>
      <point x="328" y="799"/>
      <point x="293" y="799" type="qcurve" smooth="yes"/>
      <point x="256" y="799"/>
      <point x="192" y="818"/>
      <point x="144" y="859"/>
      <point x="117" y="924"/>
    </contour>
  </outline>
</glyph>
<glyph name="less" format="1">
  <advance width="1128"/>
  <unicode hex="003C"/>
  <outline>
    <contour>
      <point x="1040" y="203" type="line"/>
      <point x="88" y="641" type="line"/>
      <point x="88" y="784" type="line"/>
      <point x="1040" y="1280" type="line"/>
      <point x="1040" y="1040" type="line"/>
      <point x="397" y="723" type="line"/>
      <point x="1040" y="442" type="line"/>
    </contour>
  </outline>
</glyph>
<glyph name="equal" format="1">
  <advance width="1128"/>
  <unicode hex="003D"/>
  <outline>
    <contour>
      <point x="88" y="807" type="line"/>
      <point x="88" y="1024" type="line"/>
      <point x="1040" y="1024" type="line"/>
      <point x="1040" y="807" type="line"/>
    </contour>
    <contour>
      <point x="88" y="418" type="line"/>
      <point x="88" y="637" type="line"/>
      <point x="1040" y="637" type="line"/>
      <point x="1040" y="418" type="line"/>
    </contour>
  </outline>
</glyph>
<glyph name="greater" format="1">
  <advance width="1128"/>
  <unicode hex="003E"/>
  <outline>
    <contour>
      <point x="88" y="442" type="line"/>
      <point x="731" y="723" type="line"/>
      <point x="88" y="1040" type="line"/>
      <point x="88" y="1280" type="line"/>
      <point x="1040" y="784" type="line"/>
      <point x="1040" y="641" type="line"/>
      <point x="88" y="203" type="line"/>
    </contour>
  </outline>
</glyph>
<glyph name="uniAA00" format="1">
  <advance width="1900"/>
  <unicode hex="AA00"/>
  <outline>
    <contour>
      <point x="828" y="165" type="qcurve"/>
      <point x="781" y="170"/>
      <point x="740" y="170" type="qcurve"/>
      <point x="690" y="150"/>
      <point x="680" y="120" type="qcurve" smooth="yes"/>
      <point x="679" y="116"/>
      <point x="679" y="112" type="qcurve" smooth="yes"/>
      <point x="679" y="89"/>
      <point x="736" y="89" type="qcurve" smooth="yes"/>
      <point x="793" y="89"/>
    </contour>
    <contour>
      <point x="913" y="658" type="qcurve"/>
      <point x="874" y="597"/>
      <point x="775" y="550" type="qcurve"/>
      <point x="902" y="489"/>
      <point x="946" y="408" type="qcurve" smooth="yes"/>
      <point x="986" y="335"/>
      <point x="986" y="274" type="qcurve" smooth="yes"/>
      <point x="986" y="267"/>
      <point x="985" y="260" type="qcurve"/>
      <point x="1026" y="246"/>
      <point x="1145" y="188"/>
      <point x="1216" y="128" type="qcurve"/>
      <point x="1167" y="26" type="line"/>
      <point x="1086" y="108"/>
      <point x="968" y="147" type="qcurve"/>
      <point x="915" y="0"/>
      <point x="710" y="0" type="qcurve"/>
      <point x="579" y="9"/>
      <point x="579" y="140" type="qcurve" smooth="yes"/>
      <point x="579" y="270"/>
      <point x="740" y="290" type="qcurve" smooth="yes"/>
      <point x="757" y="292"/>
      <point x="774" y="292" type="qcurve" smooth="yes"/>
      <point x="812" y="292"/>
      <point x="847" y="282" type="qcurve"/>
      <point x="847" y="288" type="line" smooth="yes"/>
      <point x="847" y="314"/>
      <point x="799" y="364"/>
      <point x="630" y="420" type="qcurve"/>
      <point x="630" y="633" type="line"/>
      <point x="800" y="675"/>
      <point x="800" y="800" type="qcurve" smooth="yes"/>
      <point x="800" y="930"/>
      <point x="525" y="930" type="qcurve" smooth="yes"/>
      <point x="270" y="930"/>
      <point x="270" y="750" type="qcurve" smooth="yes"/>
      <point x="270" y="548"/>
      <point x="327" y="499" type="qcurve"/>
      <point x="357" y="534"/>
      <point x="398" y="550"/>
      <point x="420" y="550" type="qcurve" smooth="yes"/>
      <point x="451" y="550"/>
      <point x="511" y="518"/>
      <point x="545" y="458"/>
      <point x="545" y="425" type="qcurve" smooth="yes"/>
      <point x="545" y="392"/>
      <point x="512" y="333"/>
      <point x="452" y="300"/>
      <point x="420" y="300" type="qcurve" smooth="yes"/>
      <point x="100" y="300"/>
      <point x="100" y="750" type="qcurve" smooth="yes"/>
      <point x="100" y="1200"/>
      <point x="525" y="1200" type="qcurve" smooth="yes"/>
      <point x="944" y="1200"/>
      <point x="950" y="811" type="qcurve"/>
      <point x="999" y="766"/>
      <point x="1054" y="704" type="qcurve" smooth="yes"/>
      <point x="1111" y="639"/>
      <point x="1143" y="559" type="qcurve"/>
      <point x="1164" y="598"/>
      <point x="1164" y="619" type="qcurve" smooth="yes"/>
      <point x="1164" y="664"/>
      <point x="1142" y="709" type="qcurve" smooth="yes"/>
      <point x="1100" y="806"/>
      <point x="1100" y="870" type="qcurve" smooth="yes"/>
      <point x="1100" y="1200"/>
      <point x="1450" y="1200" type="qcurve" smooth="yes"/>
      <point x="1800" y="1200"/>
      <point x="1800" y="850" type="qcurve" smooth="yes"/>
      <point x="1800" y="692"/>
      <point x="1656" y="562" type="qcurve"/>
      <point x="1550" y="637" type="line"/>
      <point x="1630" y="712"/>
      <point x="1630" y="850" type="qcurve" smooth="yes"/>
      <point x="1630" y="930"/>
      <point x="1450" y="930" type="qcurve" smooth="yes"/>
      <point x="1260" y="930"/>
      <point x="1260" y="870" type="qcurve" smooth="yes"/>
      <point x="1260" y="808"/>
      <point x="1284" y="753" type="qcurve" smooth="yes"/>
      <point x="1311" y="683"/>
      <point x="1311" y="628" type="qcurve" smooth="yes"/>
      <point x="1311" y="607"/>
      <point x="1308" y="589" type="qcurve" smooth="yes"/>
      <point x="1282" y="464"/>
      <point x="1156" y="372" type="qcurve"/>
      <point x="1059" y="421" type="line"/>
      <point x="1022" y="548"/>
    </contour>
  </outline>
</glyph>
<glyph name="uniAA01" format="1">
  <advance width="1700"/>
  <unicode hex="AA01"/>
  <outline>
    <contour>
      <point x="100" y="750" type="qcurve" smooth="yes"/>
      <point x="100" y="1159"/>
      <point x="441" y="1196" type="qcurve" smooth="yes"/>
      <point x="468" y="1200"/>
      <point x="485" y="1200" type="qcurve" smooth="yes"/>
      <point x="629" y="1200"/>
      <point x="745" y="1130" type="qcurve" smooth="yes"/>
      <point x="802" y="1095"/>
      <point x="860" y="1095" type="qcurve" smooth="yes"/>
      <point x="918" y="1095"/>
      <point x="976" y="1130" type="qcurve" smooth="yes"/>
      <point x="1092" y="1200"/>
      <point x="1235" y="1200" type="qcurve" smooth="yes"/>
      <point x="1600" y="1200"/>
      <point x="1600" y="793" type="qcurve" smooth="yes"/>
      <point x="1600" y="386"/>
      <point x="1106" y="173" type="qcurve" smooth="yes"/>
      <point x="610" y="-45"/>
      <point x="610" y="-200" type="qcurve" smooth="yes"/>
      <point x="610" y="-290"/>
      <point x="676" y="-290" type="qcurve" smooth="yes"/>
      <point x="793" y="-290"/>
      <point x="1038" y="10"/>
      <point x="1173" y="10" type="qcurve" smooth="yes"/>
      <point x="1338" y="10"/>
      <point x="1357" y="-128" type="qcurve" smooth="yes"/>
      <point x="1362" y="-166"/>
      <point x="1362" y="-200" type="qcurve" smooth="yes"/>
      <point x="1362" y="-340"/>
      <point x="1268" y="-477" type="qcurve"/>
      <point x="1144" y="-429" type="line"/>
      <point x="1214" y="-326"/>
      <point x="1215" y="-238" type="qcurve" smooth="yes"/>
      <point x="1215" y="-236" type="line" smooth="yes"/>
      <point x="1215" y="-169"/>
      <point x="1152" y="-169" type="qcurve" smooth="yes"/>
      <point x="1145" y="-169"/>
      <point x="1137" y="-170" type="qcurve" smooth="yes"/>
      <point x="1068" y="-180"/>
      <point x="861" y="-500"/>
      <point x="676" y="-500" type="qcurve" smooth="yes"/>
      <point x="452" y="-500"/>
      <point x="452" y="-200" type="qcurve" smooth="yes"/>
      <point x="452" y="101"/>
      <point x="1072" y="335" type="qcurve"/>
      <point x="1433" y="511"/>
      <point x="1433" y="776" type="qcurve" smooth="yes"/>
      <point x="1433" y="930"/>
      <point x="1235" y="930" type="qcurve" smooth="yes"/>
      <point x="1106" y="930"/>
      <point x="1003" y="870" type="qcurve" smooth="yes"/>
      <point x="952" y="840"/>
      <point x="860" y="840" type="qcurve" smooth="yes"/>
      <point x="769" y="840"/>
      <point x="718" y="870" type="qcurve" smooth="yes"/>
      <point x="615" y="930"/>
      <point x="495" y="930" type="qcurve" smooth="yes"/>
      <point x="270" y="930"/>
      <point x="270" y="750" type="qcurve" smooth="yes"/>
      <point x="270" y="518"/>
      <point x="341" y="499" type="qcurve"/>
      <point x="364" y="535"/>
      <point x="408" y="550"/>
      <point x="440" y="550" type="qcurve" smooth="yes"/>
      <point x="471" y="550"/>
      <point x="531" y="518"/>
      <point x="565" y="458"/>
      <point x="565" y="425" type="qcurve" smooth="yes"/>
      <point x="565" y="392"/>
      <point x="532" y="333"/>
      <point x="472" y="300"/>
      <point x="440" y="300" type="qcurve" smooth="yes"/>
      <point x="100" y="300"/>
    </contour>
  </outline>
</glyph>
<glyph name="uniAA03" format="1">
  <advance width="1596"/>
  <unicode hex="AA03"/>
  <outline>
    <contour>
      <point x="425" y="929" type="qcurve"/>
      <point x="260" y="915"/>
      <point x="260" y="830" type="qcurve" smooth="yes"/>
      <point x="260" y="658"/>
      <point x="356" y="618" type="qcurve"/>
      <point x="278" y="523" type="line"/>
      <point x="100" y="570"/>
      <point x="100" y="830" type="qcurve" smooth="yes"/>
      <point x="100" y="1197"/>
      <point x="416" y="1197" type="qcurve" smooth="yes"/>
      <point x="751" y="1197"/>
      <point x="751" y="880" type="qcurve" smooth="yes"/>
      <point x="751" y="861"/>
      <point x="750" y="840" type="qcurve" smooth="yes"/>
      <point x="720" y="705"/>
      <point x="641" y="517"/>
      <point x="641" y="400" type="qcurve"/>
      <point x="661" y="272"/>
      <point x="897" y="215" type="qcurve"/>
      <point x="889" y="238"/>
      <point x="889" y="265" type="qcurve" smooth="yes"/>
      <point x="889" y="302"/>
      <point x="905" y="348" type="qcurve" smooth="yes"/>
      <point x="933" y="425"/>
      <point x="1098" y="586"/>
      <point x="1098" y="629" type="qcurve" smooth="yes"/>
      <point x="1098" y="664"/>
      <point x="1084" y="701" type="qcurve"/>
      <point x="940" y="712"/>
      <point x="940" y="825" type="qcurve" smooth="yes"/>
      <point x="940" y="950"/>
      <point x="1065" y="950" type="qcurve" smooth="yes"/>
      <point x="1150" y="950"/>
      <point x="1177" y="869" type="qcurve"/>
      <point x="1190" y="917"/>
      <point x="1190" y="1000" type="qcurve" smooth="yes"/>
      <point x="1190" y="1141"/>
      <point x="936" y="1389"/>
      <point x="936" y="1534" type="qcurve" smooth="yes"/>
      <point x="936" y="1850"/>
      <point x="1266" y="1850" type="qcurve" smooth="yes"/>
      <point x="1596" y="1850"/>
      <point x="1596" y="1514" type="qcurve" smooth="yes"/>
      <point x="1596" y="1384"/>
      <point x="1473" y="1280" type="qcurve"/>
      <point x="1375" y="1328" type="line"/>
      <point x="1436" y="1402"/>
      <point x="1436" y="1514" type="qcurve" smooth="yes"/>
      <point x="1436" y="1580"/>
      <point x="1266" y="1580" type="qcurve" smooth="yes"/>
      <point x="1096" y="1580"/>
      <point x="1096" y="1514" type="qcurve" smooth="yes"/>
      <point x="1096" y="1425"/>
      <point x="1350" y="1167"/>
      <point x="1350" y="1000" type="qcurve" smooth="yes"/>
      <point x="1350" y="770"/>
      <point x="1247" y="716" type="qcurve"/>
      <point x="1263" y="658"/>
      <point x="1263" y="607" type="qcurve" smooth="yes"/>
      <point x="1263" y="492"/>
      <point x="1049" y="321"/>
      <point x="1049" y="173" type="qcurve" smooth="yes"/>
      <point x="1049" y="117"/>
      <point x="1076" y="92" type="qcurve"/>
      <point x="1025" y="0" type="line"/>
      <point x="501" y="70"/>
      <point x="481" y="400" type="qcurve"/>
      <point x="481" y="513"/>
      <point x="560" y="711"/>
      <point x="576" y="815" type="qcurve" smooth="yes"/>
      <point x="577" y="824"/>
      <point x="577" y="832" type="qcurve" smooth="yes"/>
      <point x="577" y="919"/>
    </contour>
  </outline>
</glyph>
<glyph name="uniAA05" format="1">
  <advance width="1050"/>
  <unicode hex="AA05"/>
  <outline>
    <contour>
      <point x="768" y="165" type="qcurve"/>
      <point x="721" y="170"/>
      <point x="670" y="170" type="qcurve" smooth="yes"/>
      <point x="580" y="170"/>
      <point x="580" y="145" type="qcurve" smooth="yes"/>
      <point x="580" y="120"/>
      <point x="640" y="120" type="qcurve" smooth="yes"/>
      <point x="733" y="120"/>
    </contour>
    <contour>
      <point x="100" y="750" type="qcurve" smooth="yes"/>
      <point x="100" y="1200"/>
      <point x="525" y="1200" type="qcurve" smooth="yes"/>
      <point x="950" y="1200"/>
      <point x="950" y="800" type="qcurve" smooth="yes"/>
      <point x="950" y="629"/>
      <point x="825" y="530" type="qcurve"/>
      <point x="950" y="447"/>
      <point x="950" y="320" type="qcurve" smooth="yes"/>
      <point x="950" y="297"/>
      <point x="945" y="260" type="qcurve"/>
      <point x="1015" y="243"/>
      <point x="1081" y="191" type="qcurve"/>
      <point x="1055" y="91" type="line"/>
      <point x="1011" y="133"/>
      <point x="928" y="147" type="qcurve"/>
      <point x="875" y="0"/>
      <point x="640" y="0" type="qcurve" smooth="yes"/>
      <point x="460" y="0"/>
      <point x="451" y="104" type="qcurve" smooth="yes"/>
      <point x="450" y="117"/>
      <point x="450" y="130" type="qcurve" smooth="yes"/>
      <point x="450" y="214"/>
      <point x="503" y="255" type="qcurve" smooth="yes"/>
      <point x="563" y="300"/>
      <point x="638" y="300" type="qcurve" smooth="yes"/>
      <point x="641" y="300" type="line" smooth="yes"/>
      <point x="718" y="299"/>
      <point x="787" y="292" type="qcurve"/>
      <point x="790" y="309"/>
      <point x="790" y="320" type="qcurve" smooth="yes"/>
      <point x="790" y="412"/>
      <point x="640" y="450" type="qcurve"/>
      <point x="640" y="576" type="line"/>
      <point x="790" y="635"/>
      <point x="790" y="800" type="qcurve" smooth="yes"/>
      <point x="790" y="930"/>
      <point x="530" y="930" type="qcurve" smooth="yes"/>
      <point x="260" y="930"/>
      <point x="260" y="750" type="qcurve" smooth="yes"/>
      <point x="260" y="578"/>
      <point x="327" y="529" type="qcurve"/>
      <point x="357" y="564"/>
      <point x="398" y="580"/>
      <point x="420" y="580" type="qcurve" smooth="yes"/>
      <point x="451" y="580"/>
      <point x="511" y="548"/>
      <point x="545" y="488"/>
      <point x="545" y="455" type="qcurve" smooth="yes"/>
      <point x="545" y="422"/>
      <point x="512" y="363"/>
      <point x="452" y="330"/>
      <point x="420" y="330" type="qcurve" smooth="yes"/>
      <point x="100" y="330"/>
    </contour>
  </outline>
</glyph>
<glyph name="uniAA07" format="1">
  <advance width="2390"/>
  <unicode hex="AA07"/>
  <outline>
    <contour>
      <point x="1318" y="436" type="qcurve"/>
      <point x="1152" y="325"/>
      <point x="1152" y="260" type="qcurve" smooth="yes"/>
      <point x="1152" y="201"/>
      <point x="1197" y="201" type="qcurve" smooth="yes"/>
      <point x="1240" y="201"/>
      <point x="1301" y="319"/>
    </contour>
    <contour>
      <point x="493" y="930" type="qcurve" smooth="yes"/>
      <point x="260" y="930"/>
      <point x="260" y="800" type="qcurve" smooth="yes"/>
      <point x="260" y="678"/>
      <point x="311" y="513" type="qcurve"/>
      <point x="335" y="418"/>
      <point x="335" y="333" type="qcurve" smooth="yes"/>
      <point x="335" y="269"/>
      <point x="322" y="211" type="qcurve" smooth="yes"/>
      <point x="291" y="74"/>
      <point x="179" y="-24" type="qcurve"/>
      <point x="77" y="18" type="line"/>
      <point x="171" y="191"/>
      <point x="171" y="336" type="qcurve" smooth="yes"/>
      <point x="171" y="480"/>
      <point x="100" y="690"/>
      <point x="100" y="800" type="qcurve" smooth="yes"/>
      <point x="100" y="1200"/>
      <point x="477" y="1200" type="qcurve" smooth="yes"/>
      <point x="722" y="1200"/>
      <point x="810" y="1021" type="qcurve"/>
      <point x="901" y="1200"/>
      <point x="1147" y="1200" type="qcurve" smooth="yes"/>
      <point x="1510" y="1200"/>
      <point x="1510" y="800" type="qcurve" smooth="yes"/>
      <point x="1510" y="749"/>
      <point x="1507" y="677" type="qcurve"/>
      <point x="1570" y="704"/>
      <point x="1590" y="830" type="qcurve"/>
      <point x="1592" y="1200"/>
      <point x="1940" y="1200" type="qcurve" smooth="yes"/>
      <point x="2290" y="1200"/>
      <point x="2290" y="870" type="qcurve" smooth="yes"/>
      <point x="2290" y="712"/>
      <point x="2087" y="587" type="qcurve"/>
      <point x="2008" y="685" type="line"/>
      <point x="2130" y="752"/>
      <point x="2130" y="840" type="qcurve" smooth="yes"/>
      <point x="2130" y="930"/>
      <point x="1940" y="930" type="qcurve" smooth="yes"/>
      <point x="1766" y="930"/>
      <point x="1750" y="830" type="qcurve"/>
      <point x="1731" y="572"/>
      <point x="1486" y="491" type="qcurve"/>
      <point x="1456" y="195"/>
      <point x="1288" y="0"/>
      <point x="1197" y="0" type="qcurve" smooth="yes"/>
      <point x="1006" y="0"/>
      <point x="996" y="210" type="qcurve"/>
      <point x="1006" y="420"/>
      <point x="1260" y="562" type="qcurve"/>
      <point x="1335" y="606" type="line"/>
      <point x="1350" y="703"/>
      <point x="1350" y="800" type="qcurve" smooth="yes"/>
      <point x="1350" y="930"/>
      <point x="1137" y="930" type="qcurve" smooth="yes"/>
      <point x="923" y="930"/>
      <point x="849" y="780" type="qcurve"/>
      <point x="757" y="780" type="line"/>
      <point x="695" y="930"/>
    </contour>
  </outline>
</glyph>
<glyph name="uniAA08" format="1">
  <advance width="1700"/>
  <unicode hex="AA08"/>
  <outline>
    <contour>
      <point x="1600" y="800" type="qcurve" smooth="yes"/>
      <point x="1600" y="599"/>
      <point x="1452" y="433" type="qcurve"/>
      <point x="1350" y="522" type="line"/>
      <point x="1440" y="635"/>
      <point x="1440" y="800" type="qcurve" smooth="yes"/>
      <point x="1440" y="930"/>
      <point x="1177" y="930" type="qcurve" smooth="yes"/>
      <point x="923" y="930"/>
      <point x="859" y="780" type="qcurve"/>
      <point x="767" y="780" type="line"/>
      <point x="715" y="930"/>
      <point x="493" y="930" type="qcurve" smooth="yes"/>
      <point x="260" y="930"/>
      <point x="260" y="627" type="qcurve" smooth="yes"/>
      <point x="260" y="462"/>
      <point x="358" y="208"/>
      <point x="450" y="167" type="qcurve"/>
      <point x="449" y="173" type="line"/>
      <point x="459" y="224"/>
      <point x="512" y="253"/>
      <point x="541" y="259" type="qcurve" smooth="yes"/>
      <point x="551" y="261"/>
      <point x="562" y="261" type="qcurve" smooth="yes"/>
      <point x="580" y="261"/>
      <point x="600" y="255" type="qcurve" smooth="yes"/>
      <point x="630" y="244"/>
      <point x="671" y="192"/>
      <point x="677" y="159" type="qcurve" smooth="yes"/>
      <point x="679" y="147"/>
      <point x="679" y="135" type="qcurve" smooth="yes"/>
      <point x="679" y="114"/>
      <point x="673" y="90" type="qcurve" smooth="yes"/>
      <point x="662" y="53"/>
      <point x="614" y="9"/>
      <point x="584" y="3" type="qcurve" smooth="yes"/>
      <point x="550" y="-1"/>
      <point x="518" y="-1" type="qcurve" smooth="yes"/>
      <point x="298" y="-1"/>
      <point x="186" y="230" type="qcurve" smooth="yes"/>
      <point x="100" y="408"/>
      <point x="100" y="627" type="qcurve" smooth="yes"/>
      <point x="100" y="1200"/>
      <point x="477" y="1200" type="qcurve" smooth="yes"/>
      <point x="732" y="1200"/>
      <point x="820" y="1021" type="qcurve"/>
      <point x="911" y="1200"/>
      <point x="1187" y="1200" type="qcurve" smooth="yes"/>
      <point x="1600" y="1200"/>
    </contour>
  </outline>
</glyph>
<glyph name="uniAA09" format="1">
  <advance width="2540"/>
  <unicode hex="AA09"/>
  <outline>
    <contour>
      <point x="1383" y="930" type="qcurve" smooth="yes"/>
      <point x="1150" y="930"/>
      <point x="1150" y="820" type="qcurve" smooth="yes"/>
      <point x="1150" y="778"/>
      <point x="1263" y="647"/>
      <point x="1263" y="565" type="qcurve" smooth="yes"/>
      <point x="1263" y="482"/>
      <point x="1049" y="281"/>
      <point x="1049" y="173" type="qcurve" smooth="yes"/>
      <point x="1049" y="117"/>
      <point x="1076" y="92" type="qcurve"/>
      <point x="1025" y="0" type="line"/>
      <point x="501" y="70"/>
      <point x="481" y="400" type="qcurve"/>
      <point x="481" y="513"/>
      <point x="560" y="711"/>
      <point x="576" y="815" type="qcurve" smooth="yes"/>
      <point x="577" y="824"/>
      <point x="577" y="832" type="qcurve" smooth="yes"/>
      <point x="577" y="919"/>
      <point x="425" y="929" type="qcurve"/>
      <point x="260" y="915"/>
      <point x="260" y="830" type="qcurve" smooth="yes"/>
      <point x="260" y="658"/>
      <point x="356" y="618" type="qcurve"/>
      <point x="278" y="523" type="line"/>
      <point x="100" y="570"/>
      <point x="100" y="830" type="qcurve" smooth="yes"/>
      <point x="100" y="1197"/>
      <point x="416" y="1197" type="qcurve" smooth="yes"/>
      <point x="751" y="1197"/>
      <point x="751" y="880" type="qcurve" smooth="yes"/>
      <point x="751" y="861"/>
      <point x="750" y="840" type="qcurve" smooth="yes"/>
      <point x="720" y="705"/>
      <point x="641" y="517"/>
      <point x="641" y="400" type="qcurve"/>
      <point x="661" y="272"/>
      <point x="897" y="215" type="qcurve"/>
      <point x="890" y="235"/>
      <point x="890" y="257" type="qcurve" smooth="yes"/>
      <point x="890" y="295"/>
      <point x="912" y="340" type="qcurve" smooth="yes"/>
      <point x="947" y="410"/>
      <point x="1098" y="546"/>
      <point x="1098" y="590" type="qcurve" smooth="yes"/>
      <point x="1098" y="634"/>
      <point x="990" y="790"/>
      <point x="990" y="870" type="qcurve" smooth="yes"/>
      <point x="990" y="1200"/>
      <point x="1367" y="1200" type="qcurve" smooth="yes"/>
      <point x="1612" y="1200"/>
      <point x="1700" y="1021" type="qcurve"/>
      <point x="1791" y="1200"/>
      <point x="2047" y="1200" type="qcurve" smooth="yes"/>
      <point x="2440" y="1200"/>
      <point x="2440" y="800" type="qcurve" smooth="yes"/>
      <point x="2440" y="539"/>
      <point x="2227" y="410" type="qcurve"/>
      <point x="2152" y="520" type="line"/>
      <point x="2280" y="615"/>
      <point x="2280" y="800" type="qcurve" smooth="yes"/>
      <point x="2280" y="930"/>
      <point x="2037" y="930" type="qcurve" smooth="yes"/>
      <point x="1803" y="930"/>
      <point x="1739" y="780" type="qcurve"/>
      <point x="1647" y="780" type="line"/>
      <point x="1595" y="930"/>
    </contour>
  </outline>
</glyph>
<glyph name="uniAA0A" format="1">
  <advance width="1460"/>
  <unicode hex="AA0A"/>
  <outline>
    <contour>
      <point x="660" y="821" type="qcurve" smooth="yes"/>
      <point x="660" y="930"/>
      <point x="465" y="930" type="qcurve" smooth="yes"/>
      <point x="270" y="930"/>
      <point x="270" y="830" type="qcurve" smooth="yes"/>
      <point x="270" y="678"/>
      <point x="410" y="637" type="qcurve"/>
      <point x="357" y="525" type="line"/>
      <point x="100" y="570"/>
      <point x="100" y="830" type="qcurve" smooth="yes"/>
      <point x="100" y="1200"/>
      <point x="460" y="1200" type="qcurve" smooth="yes"/>
      <point x="820" y="1200"/>
      <point x="820" y="850" type="qcurve" smooth="yes"/>
      <point x="820" y="705"/>
      <point x="714" y="577" type="qcurve"/>
      <point x="898" y="490"/>
      <point x="898" y="349" type="qcurve" smooth="yes"/>
      <point x="898" y="284"/>
      <point x="883" y="222" type="qcurve"/>
      <point x="1170" y="401"/>
      <point x="1170" y="900" type="qcurve" smooth="yes"/>
      <point x="1170" y="909" type="line"/>
      <point x="1146" y="900"/>
      <point x="1110" y="900" type="qcurve" smooth="yes"/>
      <point x="1071" y="900"/>
      <point x="1020" y="991"/>
      <point x="1020" y="1050" type="qcurve" smooth="yes"/>
      <point x="1020" y="1089"/>
      <point x="1060" y="1161"/>
      <point x="1132" y="1200"/>
      <point x="1170" y="1200" type="qcurve" smooth="yes"/>
      <point x="1228" y="1200"/>
      <point x="1305" y="1144"/>
      <point x="1318" y="1103" type="qcurve"/>
      <point x="1371" y="1140"/>
      <point x="1383" y="1154" type="qcurve" smooth="yes"/>
      <point x="1408" y="1179"/>
      <point x="1430" y="1200" type="qcurve"/>
      <point x="1460" y="1049" type="line"/>
      <point x="1399" y="993"/>
      <point x="1330" y="948" type="qcurve"/>
      <point x="1330" y="900" type="line" smooth="yes"/>
      <point x="1330" y="277"/>
      <point x="938" y="78" type="qcurve"/>
      <point x="797" y="11" type="line"/>
      <point x="773" y="0" type="line"/>
      <point x="661" y="95" type="line"/>
      <point x="705" y="169"/>
      <point x="728" y="257" type="qcurve" smooth="yes"/>
      <point x="734" y="280"/>
      <point x="734" y="302" type="qcurve" smooth="yes"/>
      <point x="734" y="382"/>
      <point x="519" y="461" type="qcurve"/>
      <point x="515" y="610" type="line" smooth="yes"/>
      <point x="515" y="611"/>
      <point x="516" y="612" type="qcurve" smooth="yes"/>
      <point x="660" y="711"/>
    </contour>
  </outline>
</glyph>
<glyph name="uniAA0B" format="1">
  <advance width="1460"/>
  <unicode hex="AA0B"/>
  <outline>
    <contour>
      <point x="797" y="11" type="qcurve"/>
      <point x="641" y="-111"/>
      <point x="641" y="-160" type="qcurve" smooth="yes"/>
      <point x="641" y="-210"/>
      <point x="742" y="-210" type="qcurve" smooth="yes"/>
      <point x="853" y="-210"/>
      <point x="947" y="50"/>
      <point x="1119" y="50" type="qcurve" smooth="yes"/>
      <point x="1311" y="50"/>
      <point x="1311" y="-164" type="qcurve" smooth="yes"/>
      <point x="1311" y="-268"/>
      <point x="1178" y="-394" type="qcurve"/>
      <point x="1078" y="-326" type="line"/>
      <point x="1171" y="-228"/>
      <point x="1171" y="-174" type="qcurve" smooth="yes"/>
      <point x="1171" y="-120"/>
      <point x="1119" y="-120" type="qcurve" smooth="yes"/>
      <point x="1036" y="-120"/>
      <point x="1016" y="-189" type="qcurve"/>
      <point x="938" y="-400"/>
      <point x="742" y="-400" type="qcurve" smooth="yes"/>
      <point x="491" y="-400"/>
      <point x="491" y="-200" type="qcurve" smooth="yes"/>
      <point x="491" y="-55"/>
      <point x="661" y="95" type="qcurve"/>
      <point x="705" y="169"/>
      <point x="728" y="257" type="qcurve" smooth="yes"/>
      <point x="734" y="280"/>
      <point x="734" y="302" type="qcurve" smooth="yes"/>
      <point x="734" y="382"/>
      <point x="519" y="461" type="qcurve"/>
      <point x="515" y="610" type="line" smooth="yes"/>
      <point x="515" y="611"/>
      <point x="516" y="612" type="qcurve" smooth="yes"/>
      <point x="660" y="711"/>
      <point x="660" y="821" type="qcurve" smooth="yes"/>
      <point x="660" y="930"/>
      <point x="465" y="930" type="qcurve" smooth="yes"/>
      <point x="270" y="930"/>
      <point x="270" y="830" type="qcurve" smooth="yes"/>
      <point x="270" y="678"/>
      <point x="410" y="637" type="qcurve"/>
      <point x="357" y="525" type="line"/>
      <point x="100" y="570"/>
      <point x="100" y="830" type="qcurve" smooth="yes"/>
      <point x="100" y="1200"/>
      <point x="460" y="1200" type="qcurve" smooth="yes"/>
      <point x="820" y="1200"/>
      <point x="820" y="850" type="qcurve" smooth="yes"/>
      <point x="820" y="705"/>
      <point x="714" y="577" type="qcurve"/>
      <point x="898" y="490"/>
      <point x="898" y="349" type="qcurve" smooth="yes"/>
      <point x="898" y="284"/>
      <point x="883" y="222" type="qcurve"/>
      <point x="1170" y="386"/>
      <point x="1170" y="900" type="qcurve" smooth="yes"/>
      <point x="1170" y="909" type="line"/>
      <point x="1146" y="900"/>
      <point x="1110" y="900" type="qcurve" smooth="yes"/>
      <point x="1071" y="900"/>
      <point x="1020" y="991"/>
      <point x="1020" y="1050" type="qcurve" smooth="yes"/>
      <point x="1020" y="1089"/>
      <point x="1060" y="1161"/>
      <point x="1132" y="1200"/>
      <point x="1170" y="1200" type="qcurve" smooth="yes"/>
      <point x="1228" y="1200"/>
      <point x="1305" y="1144"/>
      <point x="1318" y="1103" type="qcurve"/>
      <point x="1371" y="1140"/>
      <point x="1383" y="1154" type="qcurve" smooth="yes"/>
      <point x="1408" y="1179"/>
      <point x="1430" y="1200" type="qcurve"/>
      <point x="1460" y="1049" type="line"/>
      <point x="1399" y="993"/>
      <point x="1330" y="948" type="qcurve"/>
      <point x="1330" y="900" type="line" smooth="yes"/>
      <point x="1330" y="177"/>
    </contour>
  </outline>
</glyph>
<glyph name="uniAA0C" format="1">
  <advance width="1700"/>
  <unicode hex="AA0C"/>
  <outline>
    <contour>
      <point x="628" y="436" type="qcurve"/>
      <point x="462" y="325"/>
      <point x="462" y="263" type="qcurve" smooth="yes"/>
      <point x="462" y="201"/>
      <point x="507" y="201" type="qcurve" smooth="yes"/>
      <point x="550" y="201"/>
      <point x="611" y="319"/>
    </contour>
    <contour>
      <point x="820" y="800" type="qcurve" smooth="yes"/>
      <point x="820" y="749"/>
      <point x="817" y="677" type="qcurve"/>
      <point x="880" y="704"/>
      <point x="900" y="830" type="qcurve"/>
      <point x="902" y="1200"/>
      <point x="1250" y="1200" type="qcurve" smooth="yes"/>
      <point x="1600" y="1200"/>
      <point x="1600" y="870" type="qcurve" smooth="yes"/>
      <point x="1600" y="712"/>
      <point x="1397" y="587" type="qcurve"/>
      <point x="1318" y="685" type="line"/>
      <point x="1440" y="752"/>
      <point x="1440" y="841" type="qcurve" smooth="yes"/>
      <point x="1440" y="930"/>
      <point x="1250" y="930" type="qcurve" smooth="yes"/>
      <point x="1076" y="930"/>
      <point x="1060" y="830" type="qcurve"/>
      <point x="1041" y="572"/>
      <point x="796" y="491" type="qcurve"/>
      <point x="766" y="195"/>
      <point x="598" y="0"/>
      <point x="507" y="0" type="qcurve" smooth="yes"/>
      <point x="316" y="0"/>
      <point x="306" y="210" type="qcurve"/>
      <point x="316" y="420"/>
      <point x="570" y="562" type="qcurve"/>
      <point x="645" y="606" type="line"/>
      <point x="651" y="642"/>
      <point x="651" y="681" type="qcurve" smooth="yes"/>
      <point x="651" y="746"/>
      <point x="635" y="817" type="qcurve" smooth="yes"/>
      <point x="610" y="930"/>
      <point x="465" y="930" type="qcurve" smooth="yes"/>
      <point x="270" y="930"/>
      <point x="270" y="830" type="qcurve" smooth="yes"/>
      <point x="270" y="678"/>
      <point x="410" y="637" type="qcurve"/>
      <point x="357" y="525" type="line"/>
      <point x="100" y="570"/>
      <point x="100" y="830" type="qcurve" smooth="yes"/>
      <point x="100" y="1200"/>
      <point x="460" y="1200" type="qcurve" smooth="yes"/>
      <point x="820" y="1200"/>
    </contour>
  </outline>
</glyph>
<glyph name="uniAA0E" format="1">
  <advance width="2580"/>
  <unicode hex="AA0E"/>
  <outline>
    <contour>
      <point x="1225" y="396" type="qcurve" smooth="yes"/>
      <point x="1225" y="147"/>
      <point x="797" y="11" type="qcurve"/>
      <point x="773" y="0" type="line"/>
      <point x="661" y="95" type="line"/>
      <point x="705" y="169"/>
      <point x="728" y="257" type="qcurve" smooth="yes"/>
      <point x="734" y="280"/>
      <point x="734" y="302" type="qcurve" smooth="yes"/>
      <point x="734" y="402"/>
      <point x="519" y="461" type="qcurve"/>
      <point x="515" y="610" type="line" smooth="yes"/>
      <point x="515" y="611"/>
      <point x="516" y="612" type="qcurve" smooth="yes"/>
      <point x="660" y="711"/>
      <point x="660" y="821" type="qcurve" smooth="yes"/>
      <point x="660" y="930"/>
      <point x="465" y="930" type="qcurve" smooth="yes"/>
      <point x="270" y="930"/>
      <point x="270" y="830" type="qcurve" smooth="yes"/>
      <point x="270" y="678"/>
      <point x="410" y="637" type="qcurve"/>
      <point x="357" y="525" type="line"/>
      <point x="100" y="570"/>
      <point x="100" y="830" type="qcurve" smooth="yes"/>
      <point x="100" y="1200"/>
      <point x="460" y="1200" type="qcurve" smooth="yes"/>
      <point x="820" y="1200"/>
      <point x="820" y="850" type="qcurve" smooth="yes"/>
      <point x="820" y="705"/>
      <point x="714" y="577" type="qcurve"/>
      <point x="878" y="490"/>
      <point x="878" y="319" type="qcurve" smooth="yes"/>
      <point x="878" y="234"/>
      <point x="853" y="202" type="qcurve"/>
      <point x="1061" y="291"/>
      <point x="1061" y="396" type="qcurve" smooth="yes"/>
      <point x="1061" y="500"/>
      <point x="990" y="690"/>
      <point x="990" y="800" type="qcurve" smooth="yes"/>
      <point x="990" y="1200"/>
      <point x="1367" y="1200" type="qcurve" smooth="yes"/>
      <point x="1622" y="1200"/>
      <point x="1710" y="1021" type="qcurve"/>
      <point x="1801" y="1200"/>
      <point x="2077" y="1200" type="qcurve" smooth="yes"/>
      <point x="2480" y="1200"/>
      <point x="2480" y="800" type="qcurve" smooth="yes"/>
      <point x="2480" y="539"/>
      <point x="2267" y="410" type="qcurve"/>
      <point x="2192" y="520" type="line"/>
      <point x="2320" y="615"/>
      <point x="2320" y="800" type="qcurve" smooth="yes"/>
      <point x="2320" y="930"/>
      <point x="2067" y="930" type="qcurve" smooth="yes"/>
      <point x="1813" y="930"/>
      <point x="1749" y="780" type="qcurve"/>
      <point x="1657" y="780" type="line"/>
      <point x="1605" y="930"/>
      <point x="1383" y="930" type="qcurve" smooth="yes"/>
      <point x="1150" y="930"/>
      <point x="1150" y="800" type="qcurve" smooth="yes"/>
      <point x="1150" y="698"/>
      <point x="1225" y="478"/>
    </contour>
  </outline>
</glyph>
<glyph name="uniAA14" format="1">
  <advance width="1776"/>
  <unicode hex="AA14"/>
  <outline>
    <contour>
      <point x="640" y="856" type="qcurve" smooth="yes"/>
      <point x="640" y="930"/>
      <point x="465" y="930" type="qcurve" smooth="yes"/>
      <point x="270" y="930"/>
      <point x="270" y="819" type="qcurve" smooth="yes"/>
      <point x="270" y="708"/>
      <point x="390" y="677" type="qcurve"/>
      <point x="337" y="565" type="line"/>
      <point x="100" y="600"/>
      <point x="100" y="830" type="qcurve" smooth="yes"/>
      <point x="100" y="1200"/>
      <point x="460" y="1200" type="qcurve" smooth="yes"/>
      <point x="800" y="1200"/>
      <point x="800" y="870" type="qcurve" smooth="yes"/>
      <point x="800" y="722"/>
      <point x="593" y="430"/>
      <point x="593" y="310" type="qcurve"/>
      <point x="609" y="200"/>
      <point x="761" y="200" type="qcurve" smooth="yes"/>
      <point x="943" y="200"/>
      <point x="943" y="362" type="qcurve"/>
      <point x="826" y="373"/>
      <point x="801" y="475" type="qcurve" smooth="yes"/>
      <point x="796" y="496"/>
      <point x="796" y="514" type="qcurve" smooth="yes"/>
      <point x="796" y="582"/>
      <point x="873" y="601" type="qcurve" smooth="yes"/>
      <point x="899" y="607"/>
      <point x="922" y="607" type="qcurve" smooth="yes"/>
      <point x="981" y="607"/>
      <point x="1011" y="563" type="qcurve"/>
      <point x="1056" y="586"/>
      <point x="1056" y="625" type="qcurve" smooth="yes"/>
      <point x="1056" y="648"/>
      <point x="1040" y="677" type="qcurve" smooth="yes"/>
      <point x="996" y="754"/>
      <point x="996" y="884" type="qcurve" smooth="yes"/>
      <point x="996" y="1200"/>
      <point x="1346" y="1200" type="qcurve" smooth="yes"/>
      <point x="1676" y="1200"/>
      <point x="1676" y="884" type="qcurve" smooth="yes"/>
      <point x="1676" y="734"/>
      <point x="1515" y="648" type="qcurve"/>
      <point x="1460" y="754" type="line"/>
      <point x="1526" y="792"/>
      <point x="1526" y="861" type="qcurve" smooth="yes"/>
      <point x="1526" y="930"/>
      <point x="1341" y="930" type="qcurve" smooth="yes"/>
      <point x="1156" y="930"/>
      <point x="1156" y="868" type="qcurve" smooth="yes"/>
      <point x="1156" y="806"/>
      <point x="1214" y="672" type="qcurve" smooth="yes"/>
      <point x="1232" y="628"/>
      <point x="1232" y="587" type="qcurve" smooth="yes"/>
      <point x="1232" y="503"/>
      <point x="1151" y="431" type="qcurve"/>
      <point x="1093" y="402" type="line"/>
      <point x="1093" y="362" type="line" smooth="yes"/>
      <point x="1093" y="0"/>
      <point x="754" y="0" type="qcurve" smooth="yes"/>
      <point x="445" y="0"/>
      <point x="443" y="310" type="qcurve" smooth="yes"/>
      <point x="443" y="486"/>
      <point x="640" y="782"/>
    </contour>
  </outline>
</glyph>
<glyph name="uniAA16" format="1">
  <advance width="1721"/>
  <unicode hex="AA16"/>
  <outline>
    <contour>
      <point x="999" y="301"/>
      <point x="999" y="223" type="qcurve" smooth="yes"/>
      <point x="999" y="117"/>
      <point x="1026" y="92" type="qcurve"/>
      <point x="975" y="0" type="line"/>
      <point x="501" y="70"/>
      <point x="481" y="400" type="qcurve"/>
      <point x="481" y="513"/>
      <point x="560" y="711"/>
      <point x="576" y="815" type="qcurve" smooth="yes"/>
      <point x="577" y="824"/>
      <point x="577" y="832" type="qcurve" smooth="yes"/>
      <point x="577" y="919"/>
      <point x="425" y="929" type="qcurve"/>
      <point x="260" y="915"/>
      <point x="260" y="787" type="qcurve" smooth="yes"/>
      <point x="260" y="658"/>
      <point x="356" y="618" type="qcurve"/>
      <point x="278" y="523" type="line"/>
      <point x="100" y="570"/>
      <point x="100" y="830" type="qcurve" smooth="yes"/>
      <point x="100" y="1197"/>
      <point x="416" y="1197" type="qcurve" smooth="yes"/>
      <point x="751" y="1197"/>
      <point x="751" y="880" type="qcurve" smooth="yes"/>
      <point x="751" y="861"/>
      <point x="750" y="840" type="qcurve" smooth="yes"/>
      <point x="720" y="705"/>
      <point x="641" y="517"/>
      <point x="641" y="400" type="qcurve"/>
      <point x="661" y="272"/>
      <point x="847" y="215" type="qcurve"/>
      <point x="844" y="227"/>
      <point x="844" y="241" type="qcurve" smooth="yes"/>
      <point x="844" y="275"/>
      <point x="859" y="324" type="qcurve" smooth="yes"/>
      <point x="880" y="393"/>
      <point x="1025" y="516"/>
      <point x="1025" y="600" type="qcurve" smooth="yes"/>
      <point x="1025" y="680"/>
      <point x="931" y="824"/>
      <point x="931" y="924" type="qcurve" smooth="yes"/>
      <point x="931" y="1200"/>
      <point x="1276" y="1200" type="qcurve" smooth="yes"/>
      <point x="1621" y="1200"/>
      <point x="1621" y="884" type="qcurve" smooth="yes"/>
      <point x="1621" y="734"/>
      <point x="1464" y="655" type="qcurve"/>
      <point x="1401" y="746" type="line"/>
      <point x="1471" y="792"/>
      <point x="1471" y="861" type="qcurve" smooth="yes"/>
      <point x="1471" y="930"/>
      <point x="1276" y="930" type="qcurve" smooth="yes"/>
      <point x="1081" y="930"/>
      <point x="1081" y="873" type="qcurve" smooth="yes"/>
      <point x="1081" y="816"/>
      <point x="1175" y="680"/>
      <point x="1175" y="600" type="qcurve" smooth="yes"/>
      <point x="1175" y="472"/>
    </contour>
  </outline>
</glyph>
<glyph name="uniAA17" format="1">
  <advance width="1760"/>
  <unicode hex="AA17"/>
  <outline>
    <contour>
      <point x="628" y="436" type="qcurve"/>
      <point x="462" y="325"/>
      <point x="462" y="263" type="qcurve" smooth="yes"/>
      <point x="462" y="201"/>
      <point x="507" y="201" type="qcurve" smooth="yes"/>
      <point x="550" y="201"/>
      <point x="611" y="319"/>
    </contour>
    <contour>
      <point x="788" y="428" type="qcurve"/>
      <point x="759" y="187"/>
      <point x="682" y="98" type="qcurve" smooth="yes"/>
      <point x="598" y="0"/>
      <point x="507" y="0" type="qcurve" smooth="yes"/>
      <point x="316" y="0"/>
      <point x="306" y="210" type="qcurve"/>
      <point x="316" y="420"/>
      <point x="570" y="562" type="qcurve"/>
      <point x="645" y="606" type="line"/>
      <point x="660" y="703"/>
      <point x="660" y="800" type="qcurve" smooth="yes"/>
      <point x="660" y="930"/>
      <point x="465" y="930" type="qcurve" smooth="yes"/>
      <point x="270" y="930"/>
      <point x="270" y="804" type="qcurve" smooth="yes"/>
      <point x="270" y="678"/>
      <point x="410" y="637" type="qcurve"/>
      <point x="357" y="525" type="line"/>
      <point x="100" y="570"/>
      <point x="100" y="830" type="qcurve" smooth="yes"/>
      <point x="100" y="1200"/>
      <point x="460" y="1200" type="qcurve" smooth="yes"/>
      <point x="820" y="1200"/>
      <point x="820" y="800" type="qcurve" smooth="yes"/>
      <point x="820" y="761"/>
      <point x="804" y="588" type="qcurve"/>
      <point x="868" y="576"/>
      <point x="914" y="524" type="qcurve" smooth="yes"/>
      <point x="971" y="459"/>
      <point x="1003" y="379" type="qcurve"/>
      <point x="1024" y="418"/>
      <point x="1024" y="439" type="qcurve" smooth="yes"/>
      <point x="1024" y="484"/>
      <point x="1002" y="529" type="qcurve" smooth="yes"/>
      <point x="960" y="626"/>
      <point x="960" y="790" type="qcurve" smooth="yes"/>
      <point x="960" y="1200"/>
      <point x="1310" y="1200" type="qcurve" smooth="yes"/>
      <point x="1660" y="1200"/>
      <point x="1660" y="870" type="qcurve" smooth="yes"/>
      <point x="1660" y="692"/>
      <point x="1516" y="562" type="qcurve"/>
      <point x="1410" y="637" type="line"/>
      <point x="1490" y="712"/>
      <point x="1490" y="821" type="qcurve" smooth="yes"/>
      <point x="1490" y="930"/>
      <point x="1310" y="930" type="qcurve" smooth="yes"/>
      <point x="1120" y="930"/>
      <point x="1120" y="790" type="qcurve" smooth="yes"/>
      <point x="1120" y="628"/>
      <point x="1144" y="573" type="qcurve" smooth="yes"/>
      <point x="1171" y="503"/>
      <point x="1171" y="448" type="qcurve" smooth="yes"/>
      <point x="1171" y="427"/>
      <point x="1168" y="409" type="qcurve" smooth="yes"/>
      <point x="1142" y="284"/>
      <point x="1016" y="192" type="qcurve"/>
      <point x="919" y="241" type="line"/>
      <point x="885" y="359"/>
    </contour>
  </outline>
</glyph>
<glyph name="uniAA1B" format="1">
  <advance width="1790"/>
  <unicode hex="AA1B"/>
  <outline>
    <contour>
      <point x="634" y="257" type="qcurve"/>
      <point x="684" y="288"/>
      <point x="684" y="342" type="qcurve" smooth="yes"/>
      <point x="684" y="432"/>
      <point x="519" y="511" type="qcurve"/>
      <point x="515" y="610" type="line" smooth="yes"/>
      <point x="515" y="611"/>
      <point x="516" y="612" type="qcurve" smooth="yes"/>
      <point x="660" y="711"/>
      <point x="660" y="821" type="qcurve" smooth="yes"/>
      <point x="660" y="930"/>
      <point x="465" y="930" type="qcurve" smooth="yes"/>
      <point x="270" y="930"/>
      <point x="270" y="804" type="qcurve" smooth="yes"/>
      <point x="270" y="678"/>
      <point x="391" y="632" type="qcurve"/>
      <point x="357" y="525" type="line"/>
      <point x="100" y="570"/>
      <point x="100" y="830" type="qcurve" smooth="yes"/>
      <point x="100" y="1200"/>
      <point x="460" y="1200" type="qcurve" smooth="yes"/>
      <point x="820" y="1200"/>
      <point x="820" y="850" type="qcurve" smooth="yes"/>
      <point x="820" y="705"/>
      <point x="714" y="577" type="qcurve"/>
      <point x="848" y="490"/>
      <point x="848" y="349" type="qcurve" smooth="yes"/>
      <point x="848" y="283"/>
      <point x="779" y="209" type="qcurve"/>
      <point x="805" y="197"/>
      <point x="835" y="197" type="qcurve" smooth="yes"/>
      <point x="881" y="197"/>
      <point x="1008" y="253"/>
      <point x="1046" y="331"/>
      <point x="1046" y="380" type="qcurve" smooth="yes"/>
      <point x="1046" y="390" type="line" smooth="yes"/>
      <point x="1044" y="443"/>
      <point x="990" y="626"/>
      <point x="990" y="790" type="qcurve" smooth="yes"/>
      <point x="990" y="1200"/>
      <point x="1340" y="1200" type="qcurve" smooth="yes"/>
      <point x="1690" y="1200"/>
      <point x="1690" y="870" type="qcurve" smooth="yes"/>
      <point x="1690" y="692"/>
      <point x="1546" y="562" type="qcurve"/>
      <point x="1440" y="637" type="line"/>
      <point x="1520" y="712"/>
      <point x="1520" y="821" type="qcurve" smooth="yes"/>
      <point x="1520" y="930"/>
      <point x="1340" y="930" type="qcurve" smooth="yes"/>
      <point x="1150" y="930"/>
      <point x="1150" y="790" type="qcurve" smooth="yes"/>
      <point x="1150" y="628"/>
      <point x="1203" y="444"/>
      <point x="1206" y="351" type="qcurve" smooth="yes"/>
      <point x="1206" y="343" type="line" smooth="yes"/>
      <point x="1206" y="254"/>
      <point x="1153" y="171" type="qcurve" smooth="yes"/>
      <point x="1082" y="60"/>
      <point x="955" y="18" type="qcurve" smooth="yes"/>
      <point x="902" y="0"/>
      <point x="851" y="0" type="qcurve" smooth="yes"/>
      <point x="780" y="0"/>
      <point x="712" y="35" type="qcurve"/>
      <point x="663" y="0"/>
      <point x="612" y="0" type="qcurve" smooth="yes"/>
      <point x="380" y="0"/>
      <point x="380" y="100" type="qcurve" smooth="yes"/>
      <point x="380" y="250"/>
      <point x="509" y="280" type="qcurve"/>
      <point x="566" y="280"/>
    </contour>
  </outline>
</glyph>
<glyph name="uniAA1C" format="1">
  <advance width="1916"/>
  <unicode hex="AA1C"/>
  <outline>
    <contour>
      <point x="-150" y="300" type="qcurve" smooth="yes"/>
      <point x="-150" y="274"/>
      <point x="-110" y="227"/>
      <point x="-39" y="200"/>
      <point x="0" y="200" type="qcurve" smooth="yes"/>
      <point x="39" y="200"/>
      <point x="110" y="227"/>
      <point x="150" y="274"/>
      <point x="150" y="300" type="qcurve" smooth="yes"/>
      <point x="150" y="326"/>
      <point x="110" y="374"/>
      <point x="38" y="400"/>
      <point x="0" y="400" type="qcurve" smooth="yes"/>
      <point x="-38" y="400"/>
      <point x="-109" y="374"/>
      <point x="-150" y="326"/>
    </contour>
    <contour>
      <point x="853" y="846" type="qcurve" smooth="yes"/>
      <point x="853" y="930"/>
      <point x="637" y="930" type="qcurve" smooth="yes"/>
      <point x="421" y="930"/>
      <point x="421" y="868" type="qcurve" smooth="yes"/>
      <point x="421" y="806"/>
      <point x="525" y="580"/>
      <point x="525" y="460" type="qcurve" smooth="yes"/>
      <point x="525" y="0"/>
      <point x="105" y="0" type="qcurve" smooth="yes"/>
      <point x="0" y="0" type="line" smooth="yes"/>
      <point x="-78" y="0"/>
      <point x="-221" y="79"/>
      <point x="-300" y="222"/>
      <point x="-300" y="300" type="qcurve" smooth="yes"/>
      <point x="-300" y="378"/>
      <point x="-219" y="523"/>
      <point x="-76" y="600"/>
      <point x="0" y="600" type="qcurve" smooth="yes"/>
      <point x="75" y="600"/>
      <point x="219" y="523"/>
      <point x="300" y="378"/>
      <point x="300" y="300" type="qcurve" smooth="yes"/>
      <point x="300" y="222"/>
      <point x="261" y="151" type="qcurve"/>
      <point x="375" y="227"/>
      <point x="375" y="460" type="qcurve" smooth="yes"/>
      <point x="375" y="570"/>
      <point x="271" y="774"/>
      <point x="271" y="884" type="qcurve" smooth="yes"/>
      <point x="271" y="1200"/>
      <point x="637" y="1200" type="qcurve" smooth="yes"/>
      <point x="1003" y="1200"/>
      <point x="1003" y="850" type="qcurve" smooth="yes"/>
      <point x="1003" y="702"/>
      <point x="773" y="480"/>
      <point x="773" y="330" type="qcurve"/>
      <point x="789" y="200"/>
      <point x="971" y="200" type="qcurve" smooth="yes"/>
      <point x="1153" y="200"/>
      <point x="1153" y="362" type="qcurve"/>
      <point x="1036" y="373"/>
      <point x="1011" y="475" type="qcurve" smooth="yes"/>
      <point x="1006" y="496"/>
      <point x="1006" y="514" type="qcurve" smooth="yes"/>
      <point x="1006" y="582"/>
      <point x="1083" y="601" type="qcurve" smooth="yes"/>
      <point x="1109" y="607"/>
      <point x="1132" y="607" type="qcurve" smooth="yes"/>
      <point x="1191" y="607"/>
      <point x="1221" y="563" type="qcurve"/>
      <point x="1266" y="586"/>
      <point x="1266" y="625" type="qcurve" smooth="yes"/>
      <point x="1266" y="648"/>
      <point x="1250" y="677" type="qcurve" smooth="yes"/>
      <point x="1206" y="754"/>
      <point x="1206" y="884" type="qcurve" smooth="yes"/>
      <point x="1206" y="1200"/>
      <point x="1526" y="1200" type="qcurve" smooth="yes"/>
      <point x="1816" y="1200"/>
      <point x="1816" y="884" type="qcurve" smooth="yes"/>
      <point x="1816" y="734"/>
      <point x="1655" y="648" type="qcurve"/>
      <point x="1600" y="754" type="line"/>
      <point x="1666" y="792"/>
      <point x="1666" y="861" type="qcurve" smooth="yes"/>
      <point x="1666" y="930"/>
      <point x="1521" y="930" type="qcurve" smooth="yes"/>
      <point x="1366" y="930"/>
      <point x="1366" y="868" type="qcurve" smooth="yes"/>
      <point x="1366" y="806"/>
      <point x="1424" y="672" type="qcurve" smooth="yes"/>
      <point x="1442" y="628"/>
      <point x="1442" y="587" type="qcurve" smooth="yes"/>
      <point x="1442" y="503"/>
      <point x="1361" y="431" type="qcurve"/>
      <point x="1303" y="402" type="line"/>
      <point x="1303" y="362" type="line" smooth="yes"/>
      <point x="1303" y="0"/>
      <point x="964" y="0" type="qcurve" smooth="yes"/>
      <point x="625" y="0"/>
      <point x="623" y="330" type="qcurve" smooth="yes"/>
      <point x="623" y="536"/>
      <point x="853" y="762"/>
    </contour>
  </outline>
</glyph>
<glyph name="uniAA1D" format="1">
  <advance width="1814"/>
  <unicode hex="AA1D"/>
  <outline>
    <contour>
      <point x="640" y="856" type="qcurve" smooth="yes"/>
      <point x="640" y="930"/>
      <point x="465" y="930" type="qcurve" smooth="yes"/>
      <point x="270" y="930"/>
      <point x="270" y="819" type="qcurve" smooth="yes"/>
      <point x="270" y="708"/>
      <point x="390" y="677" type="qcurve"/>
      <point x="337" y="565" type="line"/>
      <point x="100" y="600"/>
      <point x="100" y="830" type="qcurve" smooth="yes"/>
      <point x="100" y="1200"/>
      <point x="460" y="1200" type="qcurve" smooth="yes"/>
      <point x="800" y="1200"/>
      <point x="800" y="870" type="qcurve" smooth="yes"/>
      <point x="800" y="722"/>
      <point x="593" y="430"/>
      <point x="593" y="310" type="qcurve"/>
      <point x="609" y="200"/>
      <point x="841" y="200" type="qcurve" smooth="yes"/>
      <point x="1073" y="200"/>
      <point x="1073" y="362" type="qcurve" smooth="yes"/>
      <point x="1073" y="570"/>
      <point x="984" y="754"/>
      <point x="984" y="884" type="qcurve" smooth="yes"/>
      <point x="984" y="1200"/>
      <point x="1349" y="1200" type="qcurve" smooth="yes"/>
      <point x="1714" y="1200"/>
      <point x="1714" y="884" type="qcurve" smooth="yes"/>
      <point x="1714" y="734"/>
      <point x="1557" y="655" type="qcurve"/>
      <point x="1494" y="746" type="line"/>
      <point x="1564" y="792"/>
      <point x="1564" y="861" type="qcurve" smooth="yes"/>
      <point x="1564" y="930"/>
      <point x="1349" y="930" type="qcurve" smooth="yes"/>
      <point x="1134" y="930"/>
      <point x="1134" y="868" type="qcurve" smooth="yes"/>
      <point x="1134" y="806"/>
      <point x="1223" y="600"/>
      <point x="1223" y="362" type="qcurve" smooth="yes"/>
      <point x="1223" y="0"/>
      <point x="834" y="0" type="qcurve" smooth="yes"/>
      <point x="445" y="0"/>
      <point x="443" y="310" type="qcurve" smooth="yes"/>
      <point x="443" y="486"/>
      <point x="640" y="782"/>
    </contour>
  </outline>
</glyph>
<glyph name="uniAA1E" format="1">
  <advance width="2584"/>
  <unicode hex="AA1E"/>
  <outline>
    <contour>
      <point x="640" y="856" type="qcurve" smooth="yes"/>
      <point x="640" y="930"/>
      <point x="465" y="930" type="qcurve" smooth="yes"/>
      <point x="270" y="930"/>
      <point x="270" y="819" type="qcurve" smooth="yes"/>
      <point x="270" y="708"/>
      <point x="390" y="677" type="qcurve"/>
      <point x="337" y="565" type="line"/>
      <point x="100" y="600"/>
      <point x="100" y="830" type="qcurve" smooth="yes"/>
      <point x="100" y="1200"/>
      <point x="460" y="1200" type="qcurve" smooth="yes"/>
      <point x="800" y="1200"/>
      <point x="800" y="870" type="qcurve" smooth="yes"/>
      <point x="800" y="722"/>
      <point x="593" y="430"/>
      <point x="593" y="310" type="qcurve"/>
      <point x="609" y="200"/>
      <point x="841" y="200" type="qcurve" smooth="yes"/>
      <point x="1063" y="200"/>
      <point x="1063" y="336" type="qcurve" smooth="yes"/>
      <point x="1063" y="480"/>
      <point x="984" y="690"/>
      <point x="984" y="800" type="qcurve" smooth="yes"/>
      <point x="984" y="1200"/>
      <point x="1361" y="1200" type="qcurve" smooth="yes"/>
      <point x="1616" y="1200"/>
      <point x="1704" y="1021" type="qcurve"/>
      <point x="1795" y="1200"/>
      <point x="2071" y="1200" type="qcurve" smooth="yes"/>
      <point x="2484" y="1200"/>
      <point x="2484" y="800" type="qcurve" smooth="yes"/>
      <point x="2484" y="539"/>
      <point x="2271" y="410" type="qcurve"/>
      <point x="2196" y="520" type="line"/>
      <point x="2324" y="615"/>
      <point x="2324" y="770" type="qcurve" smooth="yes"/>
      <point x="2324" y="930"/>
      <point x="2061" y="930" type="qcurve" smooth="yes"/>
      <point x="1807" y="930"/>
      <point x="1743" y="780" type="qcurve"/>
      <point x="1651" y="780" type="line"/>
      <point x="1599" y="930"/>
      <point x="1377" y="930" type="qcurve" smooth="yes"/>
      <point x="1144" y="930"/>
      <point x="1144" y="800" type="qcurve" smooth="yes"/>
      <point x="1144" y="678"/>
      <point x="1213" y="418"/>
      <point x="1213" y="336" type="qcurve" smooth="yes"/>
      <point x="1213" y="0"/>
      <point x="834" y="0" type="qcurve" smooth="yes"/>
      <point x="445" y="0"/>
      <point x="443" y="310" type="qcurve" smooth="yes"/>
      <point x="443" y="486"/>
      <point x="640" y="782"/>
    </contour>
  </outline>
</glyph>
<glyph name="uniAA1F" format="1">
  <advance width="1721"/>
  <unicode hex="AA1F"/>
  <outline>
    <contour>
      <point x="1007" y="528" type="line"/>
      <point x="1025" y="565"/>
      <point x="1025" y="600" type="qcurve" smooth="yes"/>
      <point x="1025" y="680"/>
      <point x="931" y="824"/>
      <point x="931" y="924" type="qcurve" smooth="yes"/>
      <point x="931" y="1200"/>
      <point x="1276" y="1200" type="qcurve" smooth="yes"/>
      <point x="1621" y="1200"/>
      <point x="1621" y="884" type="qcurve" smooth="yes"/>
      <point x="1621" y="734"/>
      <point x="1464" y="655" type="qcurve"/>
      <point x="1401" y="746" type="line"/>
      <point x="1471" y="792"/>
      <point x="1471" y="861" type="qcurve" smooth="yes"/>
      <point x="1471" y="930"/>
      <point x="1276" y="930" type="qcurve" smooth="yes"/>
      <point x="1081" y="930"/>
      <point x="1081" y="878" type="qcurve" smooth="yes"/>
      <point x="1081" y="826"/>
      <point x="1175" y="710"/>
      <point x="1175" y="600" type="qcurve" smooth="yes"/>
      <point x="1175" y="507"/>
      <point x="1129" y="437" type="qcurve"/>
      <point x="1283" y="322" type="line"/>
      <point x="1193" y="202" type="line"/>
      <point x="1032" y="322" type="line"/>
      <point x="999" y="271"/>
      <point x="999" y="223" type="qcurve" smooth="yes"/>
      <point x="999" y="117"/>
      <point x="1026" y="92" type="qcurve"/>
      <point x="975" y="0" type="line"/>
      <point x="501" y="70"/>
      <point x="481" y="400" type="qcurve"/>
      <point x="481" y="513"/>
      <point x="560" y="711"/>
      <point x="576" y="815" type="qcurve" smooth="yes"/>
      <point x="577" y="824"/>
      <point x="577" y="832" type="qcurve" smooth="yes"/>
      <point x="577" y="919"/>
      <point x="425" y="929" type="qcurve"/>
      <point x="260" y="915"/>
      <point x="260" y="830" type="qcurve" smooth="yes"/>
      <point x="260" y="658"/>
      <point x="356" y="618" type="qcurve"/>
      <point x="278" y="523" type="line"/>
      <point x="100" y="570"/>
      <point x="100" y="830" type="qcurve" smooth="yes"/>
      <point x="100" y="1197"/>
      <point x="416" y="1197" type="qcurve" smooth="yes"/>
      <point x="751" y="1197"/>
      <point x="751" y="880" type="qcurve" smooth="yes"/>
      <point x="751" y="861"/>
      <point x="750" y="840" type="qcurve" smooth="yes"/>
      <point x="720" y="705"/>
      <point x="641" y="517"/>
      <point x="641" y="400" type="qcurve"/>
      <point x="661" y="272"/>
      <point x="847" y="215" type="qcurve"/>
      <point x="838" y="254"/>
      <point x="838" y="298" type="qcurve" smooth="yes"/>
      <point x="838" y="341"/>
      <point x="911" y="413" type="qcurve"/>
      <point x="786" y="506" type="line"/>
      <point x="876" y="626" type="line"/>
    </contour>
  </outline>
</glyph>
<glyph name="uniAA20" format="1">
  <advance width="1810"/>
  <unicode hex="AA20"/>
  <outline>
    <contour>
      <point x="913" y="414" type="qcurve"/>
      <point x="820" y="457" type="line"/>
      <point x="861" y="585" type="line"/>
      <point x="1003" y="522" type="line"/>
      <point x="1025" y="562"/>
      <point x="1025" y="600" type="qcurve" smooth="yes"/>
      <point x="1025" y="680"/>
      <point x="981" y="824"/>
      <point x="981" y="924" type="qcurve" smooth="yes"/>
      <point x="981" y="1200"/>
      <point x="1346" y="1200" type="qcurve" smooth="yes"/>
      <point x="1710" y="1200"/>
      <point x="1710" y="884" type="qcurve" smooth="yes"/>
      <point x="1710" y="734"/>
      <point x="1553" y="655" type="qcurve"/>
      <point x="1490" y="746" type="line"/>
      <point x="1560" y="792"/>
      <point x="1560" y="861" type="qcurve" smooth="yes"/>
      <point x="1560" y="930"/>
      <point x="1346" y="930" type="qcurve" smooth="yes"/>
      <point x="1131" y="930"/>
      <point x="1131" y="863" type="qcurve" smooth="yes"/>
      <point x="1131" y="796"/>
      <point x="1175" y="710"/>
      <point x="1175" y="600" type="qcurve" smooth="yes"/>
      <point x="1175" y="504"/>
      <point x="1125" y="432" type="qcurve"/>
      <point x="1166" y="385"/>
      <point x="1183" y="331" type="qcurve" smooth="yes"/>
      <point x="1195" y="290"/>
      <point x="1195" y="245" type="qcurve" smooth="yes"/>
      <point x="1195" y="222"/>
      <point x="1192" y="197" type="qcurve" smooth="yes"/>
      <point x="1175" y="89"/>
      <point x="1175" y="20" type="qcurve" smooth="yes"/>
      <point x="1175" y="-29"/>
      <point x="1244" y="-36" type="qcurve"/>
      <point x="1252" y="-36" type="line" smooth="yes"/>
      <point x="1314" y="-36"/>
      <point x="1330" y="70" type="qcurve" smooth="yes"/>
      <point x="1347" y="182"/>
      <point x="1453" y="222" type="qcurve" smooth="yes"/>
      <point x="1499" y="239"/>
      <point x="1538" y="239" type="qcurve" smooth="yes"/>
      <point x="1643" y="239"/>
      <point x="1686" y="105" type="qcurve" smooth="yes"/>
      <point x="1692" y="86"/>
      <point x="1692" y="61" type="qcurve" smooth="yes"/>
      <point x="1692" y="-7"/>
      <point x="1648" y="-121" type="qcurve"/>
      <point x="1528" y="-73" type="line"/>
      <point x="1558" y="4"/>
      <point x="1558" y="40" type="qcurve" smooth="yes"/>
      <point x="1558" y="49"/>
      <point x="1556" y="56" type="qcurve" smooth="yes"/>
      <point x="1546" y="86"/>
      <point x="1522" y="86" type="qcurve" smooth="yes"/>
      <point x="1513" y="86"/>
      <point x="1502" y="82" type="qcurve" smooth="yes"/>
      <point x="1461" y="66"/>
      <point x="1413" y="-184"/>
      <point x="1307" y="-224" type="qcurve" smooth="yes"/>
      <point x="1254" y="-244"/>
      <point x="1211" y="-244" type="qcurve" smooth="yes"/>
      <point x="1097" y="-244"/>
      <point x="1054" y="-107" type="qcurve" smooth="yes"/>
      <point x="1038" y="-56"/>
      <point x="1038" y="15" type="qcurve" smooth="yes"/>
      <point x="1038" y="93"/>
      <point x="1058" y="195" type="qcurve" smooth="yes"/>
      <point x="1061" y="220"/>
      <point x="1061" y="243" type="qcurve" smooth="yes"/>
      <point x="1061" y="281"/>
      <point x="1052" y="310" type="qcurve" smooth="yes"/>
      <point x="1048" y="324"/>
      <point x="1041" y="335" type="qcurve"/>
      <point x="999" y="277"/>
      <point x="999" y="223" type="qcurve" smooth="yes"/>
      <point x="999" y="117"/>
      <point x="975" y="0" type="qcurve"/>
      <point x="501" y="70"/>
      <point x="481" y="400" type="qcurve"/>
      <point x="481" y="513"/>
      <point x="560" y="711"/>
      <point x="576" y="815" type="qcurve" smooth="yes"/>
      <point x="577" y="824"/>
      <point x="577" y="832" type="qcurve" smooth="yes"/>
      <point x="577" y="919"/>
      <point x="425" y="929" type="qcurve"/>
      <point x="260" y="915"/>
      <point x="260" y="787" type="qcurve" smooth="yes"/>
      <point x="260" y="658"/>
      <point x="356" y="618" type="qcurve"/>
      <point x="278" y="523" type="line"/>
      <point x="100" y="570"/>
      <point x="100" y="830" type="qcurve" smooth="yes"/>
      <point x="100" y="1197"/>
      <point x="416" y="1197" type="qcurve" smooth="yes"/>
      <point x="751" y="1197"/>
      <point x="751" y="880" type="qcurve" smooth="yes"/>
      <point x="751" y="861"/>
      <point x="750" y="840" type="qcurve" smooth="yes"/>
      <point x="720" y="705"/>
      <point x="641" y="517"/>
      <point x="641" y="400" type="qcurve"/>
      <point x="661" y="272"/>
      <point x="847" y="215" type="qcurve"/>
      <point x="838" y="254"/>
      <point x="838" y="298" type="qcurve" smooth="yes"/>
      <point x="838" y="342"/>
    </contour>
  </outline>
</glyph>
<glyph name="uniAA21" format="1">
  <advance width="1810"/>
  <unicode hex="AA21"/>
  <outline>
    <contour>
      <point x="1265" y="290" type="qcurve"/>
      <point x="1221" y="213"/>
      <point x="1221" y="96" type="qcurve" smooth="yes"/>
      <point x="1221" y="64"/>
      <point x="1224" y="30" type="qcurve" smooth="yes"/>
      <point x="1223" y="17"/>
      <point x="1223" y="5" type="qcurve" smooth="yes"/>
      <point x="1223" y="-51"/>
      <point x="1288" y="-56" type="qcurve"/>
      <point x="1293" y="-56" type="line" smooth="yes"/>
      <point x="1344" y="-56"/>
      <point x="1344" y="-3" type="qcurve" smooth="yes"/>
      <point x="1344" y="28"/>
      <point x="1339" y="69" type="qcurve" smooth="yes"/>
      <point x="1314" y="218"/>
    </contour>
    <contour>
      <point x="1174" y="570" type="qcurve"/>
      <point x="1175" y="570" type="line"/>
      <point x="1207" y="551"/>
      <point x="1238" y="508" type="qcurve"/>
      <point x="1276" y="568" type="line"/>
      <point x="1371" y="492" type="line"/>
      <point x="1332" y="424" type="line"/>
      <point x="1461" y="245"/>
      <point x="1486" y="88" type="qcurve" smooth="yes"/>
      <point x="1495" y="32"/>
      <point x="1495" y="-15" type="qcurve" smooth="yes"/>
      <point x="1495" y="-202"/>
      <point x="1352" y="-240" type="qcurve" smooth="yes"/>
      <point x="1330" y="-245"/>
      <point x="1305" y="-248" type="qcurve" smooth="yes"/>
      <point x="1296" y="-249"/>
      <point x="1287" y="-249" type="qcurve" smooth="yes"/>
      <point x="1100" y="-249"/>
      <point x="1078" y="11" type="qcurve"/>
      <point x="1078" y="29" type="line" smooth="yes"/>
      <point x="1078" y="249"/>
      <point x="1172" y="400" type="qcurve"/>
      <point x="1147" y="422"/>
      <point x="1129" y="437" type="qcurve"/>
      <point x="1111" y="410"/>
      <point x="1087" y="387" type="qcurve" smooth="yes"/>
      <point x="999" y="301"/>
      <point x="999" y="223" type="qcurve" smooth="yes"/>
      <point x="999" y="117"/>
      <point x="1026" y="92" type="qcurve"/>
      <point x="975" y="0" type="line"/>
      <point x="501" y="70"/>
      <point x="481" y="400" type="qcurve"/>
      <point x="481" y="513"/>
      <point x="560" y="711"/>
      <point x="576" y="815" type="qcurve" smooth="yes"/>
      <point x="577" y="824"/>
      <point x="577" y="832" type="qcurve" smooth="yes"/>
      <point x="577" y="919"/>
      <point x="425" y="929" type="qcurve"/>
      <point x="260" y="915"/>
      <point x="260" y="787" type="qcurve" smooth="yes"/>
      <point x="260" y="658"/>
      <point x="356" y="618" type="qcurve"/>
      <point x="278" y="523" type="line"/>
      <point x="100" y="570"/>
      <point x="100" y="830" type="qcurve" smooth="yes"/>
      <point x="100" y="1197"/>
      <point x="416" y="1197" type="qcurve" smooth="yes"/>
      <point x="751" y="1197"/>
      <point x="751" y="880" type="qcurve" smooth="yes"/>
      <point x="751" y="861"/>
      <point x="750" y="840" type="qcurve" smooth="yes"/>
      <point x="720" y="705"/>
      <point x="641" y="517"/>
      <point x="641" y="400" type="qcurve"/>
      <point x="661" y="272"/>
      <point x="847" y="215" type="qcurve"/>
      <point x="838" y="254"/>
      <point x="838" y="300" type="qcurve" smooth="yes"/>
      <point x="838" y="346"/>
      <point x="918" y="419" type="qcurve" smooth="yes"/>
      <point x="970" y="466"/>
      <point x="997" y="510" type="qcurve"/>
      <point x="851" y="584" type="line"/>
      <point x="915" y="710" type="line"/>
      <point x="1023" y="652" type="line"/>
      <point x="1019" y="704"/>
      <point x="1008" y="752" type="qcurve" smooth="yes"/>
      <point x="991" y="824"/>
      <point x="991" y="924" type="qcurve" smooth="yes"/>
      <point x="991" y="1200"/>
      <point x="1336" y="1200" type="qcurve" smooth="yes"/>
      <point x="1710" y="1200"/>
      <point x="1710" y="884" type="qcurve" smooth="yes"/>
      <point x="1710" y="734"/>
      <point x="1553" y="655" type="qcurve"/>
      <point x="1490" y="746" type="line"/>
      <point x="1560" y="792"/>
      <point x="1560" y="861" type="qcurve" smooth="yes"/>
      <point x="1560" y="930"/>
      <point x="1336" y="930" type="qcurve" smooth="yes"/>
      <point x="1141" y="930"/>
      <point x="1141" y="868" type="qcurve" smooth="yes"/>
      <point x="1141" y="806"/>
      <point x="1175" y="710"/>
      <point x="1175" y="600" type="qcurve" smooth="yes"/>
      <point x="1175" y="585"/>
    </contour>
  </outline>
</glyph>
<glyph name="uniAA23" format="1">
  <advance width="1061"/>
  <unicode hex="AA23"/>
  <outline>
    <contour>
      <point x="-150" y="300" type="qcurve" smooth="yes"/>
      <point x="-150" y="274"/>
      <point x="-110" y="227"/>
      <point x="-39" y="200"/>
      <point x="0" y="200" type="qcurve" smooth="yes"/>
      <point x="39" y="200"/>
      <point x="110" y="227"/>
      <point x="150" y="274"/>
      <point x="150" y="300" type="qcurve" smooth="yes"/>
      <point x="150" y="326"/>
      <point x="110" y="374"/>
      <point x="38" y="400"/>
      <point x="0" y="400" type="qcurve" smooth="yes"/>
      <point x="-38" y="400"/>
      <point x="-109" y="374"/>
      <point x="-150" y="326"/>
    </contour>
    <contour>
      <point x="421" y="868" type="qcurve" smooth="yes"/>
      <point x="421" y="806"/>
      <point x="525" y="580"/>
      <point x="525" y="460" type="qcurve" smooth="yes"/>
      <point x="525" y="0"/>
      <point x="105" y="0" type="qcurve" smooth="yes"/>
      <point x="0" y="0" type="line" smooth="yes"/>
      <point x="-78" y="0"/>
      <point x="-221" y="79"/>
      <point x="-300" y="222"/>
      <point x="-300" y="300" type="qcurve" smooth="yes"/>
      <point x="-300" y="378"/>
      <point x="-219" y="523"/>
      <point x="-76" y="600"/>
      <point x="0" y="600" type="qcurve" smooth="yes"/>
      <point x="75" y="600"/>
      <point x="219" y="523"/>
      <point x="300" y="378"/>
      <point x="300" y="300" type="qcurve" smooth="yes"/>
      <point x="300" y="222"/>
      <point x="261" y="151" type="qcurve"/>
      <point x="375" y="227"/>
      <point x="375" y="460" type="qcurve" smooth="yes"/>
      <point x="375" y="570"/>
      <point x="271" y="774"/>
      <point x="271" y="884" type="qcurve" smooth="yes"/>
      <point x="271" y="1200"/>
      <point x="616" y="1200" type="qcurve" smooth="yes"/>
      <point x="961" y="1200"/>
      <point x="961" y="884" type="qcurve" smooth="yes"/>
      <point x="961" y="734"/>
      <point x="804" y="655" type="qcurve"/>
      <point x="741" y="746" type="line"/>
      <point x="811" y="792"/>
      <point x="811" y="861" type="qcurve" smooth="yes"/>
      <point x="811" y="930"/>
      <point x="616" y="930" type="qcurve" smooth="yes"/>
      <point x="421" y="930"/>
    </contour>
  </outline>
</glyph>
<glyph name="uniAA24" format="1">
  <advance width="1620"/>
  <unicode hex="AA24"/>
  <outline>
    <contour>
      <point x="260" y="627" type="qcurve" smooth="yes"/>
      <point x="260" y="462"/>
      <point x="358" y="208"/>
      <point x="450" y="167" type="qcurve"/>
      <point x="449" y="173" type="line"/>
      <point x="459" y="224"/>
      <point x="512" y="253"/>
      <point x="541" y="259" type="qcurve" smooth="yes"/>
      <point x="551" y="261"/>
      <point x="562" y="261" type="qcurve" smooth="yes"/>
      <point x="580" y="261"/>
      <point x="600" y="255" type="qcurve" smooth="yes"/>
      <point x="630" y="244"/>
      <point x="671" y="192"/>
      <point x="677" y="159" type="qcurve" smooth="yes"/>
      <point x="679" y="147"/>
      <point x="679" y="135" type="qcurve" smooth="yes"/>
      <point x="679" y="114"/>
      <point x="673" y="90" type="qcurve" smooth="yes"/>
      <point x="662" y="53"/>
      <point x="614" y="9"/>
      <point x="584" y="3" type="qcurve" smooth="yes"/>
      <point x="550" y="-1"/>
      <point x="518" y="-1" type="qcurve" smooth="yes"/>
      <point x="298" y="-1"/>
      <point x="186" y="230" type="qcurve" smooth="yes"/>
      <point x="100" y="408"/>
      <point x="100" y="627" type="qcurve" smooth="yes"/>
      <point x="100" y="1159"/>
      <point x="423" y="1196" type="qcurve" smooth="yes"/>
      <point x="448" y="1200"/>
      <point x="464" y="1200" type="qcurve" smooth="yes"/>
      <point x="601" y="1200"/>
      <point x="711" y="1130" type="qcurve" smooth="yes"/>
      <point x="765" y="1095"/>
      <point x="819" y="1095" type="qcurve" smooth="yes"/>
      <point x="874" y="1095"/>
      <point x="929" y="1130" type="qcurve" smooth="yes"/>
      <point x="1039" y="1200"/>
      <point x="1174" y="1200" type="qcurve" smooth="yes"/>
      <point x="1520" y="1200"/>
      <point x="1520" y="800" type="qcurve" smooth="yes"/>
      <point x="1520" y="599"/>
      <point x="1372" y="433" type="qcurve"/>
      <point x="1270" y="522" type="line"/>
      <point x="1360" y="635"/>
      <point x="1360" y="783" type="qcurve" smooth="yes"/>
      <point x="1360" y="930"/>
      <point x="1174" y="930" type="qcurve" smooth="yes"/>
      <point x="1052" y="930"/>
      <point x="955" y="870" type="qcurve" smooth="yes"/>
      <point x="907" y="840"/>
      <point x="819" y="840" type="qcurve" smooth="yes"/>
      <point x="733" y="840"/>
      <point x="685" y="870" type="qcurve" smooth="yes"/>
      <point x="588" y="930"/>
      <point x="474" y="930" type="qcurve" smooth="yes"/>
      <point x="260" y="930"/>
    </contour>
  </outline>
</glyph>
<glyph name="uniAA25" format="1">
  <advance width="1721"/>
  <unicode hex="AA25"/>
  <outline>
    <contour>
      <point x="1265" y="290" type="qcurve"/>
      <point x="1221" y="213"/>
      <point x="1221" y="96" type="qcurve" smooth="yes"/>
      <point x="1221" y="64"/>
      <point x="1224" y="30" type="qcurve" smooth="yes"/>
      <point x="1223" y="17"/>
      <point x="1223" y="5" type="qcurve" smooth="yes"/>
      <point x="1223" y="-51"/>
      <point x="1288" y="-56" type="qcurve"/>
      <point x="1293" y="-56" type="line" smooth="yes"/>
      <point x="1344" y="-56"/>
      <point x="1344" y="-3" type="qcurve" smooth="yes"/>
      <point x="1344" y="28"/>
      <point x="1339" y="69" type="qcurve" smooth="yes"/>
      <point x="1314" y="218"/>
    </contour>
    <contour>
      <point x="1174" y="574" type="qcurve"/>
      <point x="1210" y="546"/>
      <point x="1238" y="508" type="qcurve"/>
      <point x="1276" y="568" type="line"/>
      <point x="1371" y="492" type="line"/>
      <point x="1332" y="424" type="line"/>
      <point x="1461" y="245"/>
      <point x="1486" y="88" type="qcurve" smooth="yes"/>
      <point x="1495" y="32"/>
      <point x="1495" y="-15" type="qcurve" smooth="yes"/>
      <point x="1495" y="-202"/>
      <point x="1352" y="-240" type="qcurve" smooth="yes"/>
      <point x="1330" y="-245"/>
      <point x="1305" y="-248" type="qcurve" smooth="yes"/>
      <point x="1296" y="-249"/>
      <point x="1287" y="-249" type="qcurve" smooth="yes"/>
      <point x="1100" y="-249"/>
      <point x="1078" y="11" type="qcurve"/>
      <point x="1078" y="29" type="line" smooth="yes"/>
      <point x="1078" y="249"/>
      <point x="1172" y="400" type="qcurve"/>
      <point x="1151" y="424"/>
      <point x="1130" y="439" type="qcurve"/>
      <point x="1112" y="411"/>
      <point x="1087" y="387" type="qcurve" smooth="yes"/>
      <point x="999" y="301"/>
      <point x="999" y="223" type="qcurve" smooth="yes"/>
      <point x="999" y="117"/>
      <point x="1026" y="92" type="qcurve"/>
      <point x="975" y="0" type="line"/>
      <point x="501" y="70"/>
      <point x="481" y="400" type="qcurve"/>
      <point x="481" y="513"/>
      <point x="560" y="711"/>
      <point x="576" y="815" type="qcurve" smooth="yes"/>
      <point x="577" y="824"/>
      <point x="577" y="832" type="qcurve" smooth="yes"/>
      <point x="577" y="919"/>
      <point x="425" y="929" type="qcurve"/>
      <point x="260" y="915"/>
      <point x="260" y="787" type="qcurve" smooth="yes"/>
      <point x="260" y="658"/>
      <point x="356" y="618" type="qcurve"/>
      <point x="278" y="523" type="line"/>
      <point x="100" y="570"/>
      <point x="100" y="830" type="qcurve" smooth="yes"/>
      <point x="100" y="1197"/>
      <point x="416" y="1197" type="qcurve" smooth="yes"/>
      <point x="751" y="1197"/>
      <point x="751" y="880" type="qcurve" smooth="yes"/>
      <point x="751" y="861"/>
      <point x="750" y="840" type="qcurve" smooth="yes"/>
      <point x="720" y="705"/>
      <point x="641" y="517"/>
      <point x="641" y="400" type="qcurve"/>
      <point x="661" y="272"/>
      <point x="847" y="215" type="qcurve"/>
      <point x="838" y="254"/>
      <point x="838" y="300" type="qcurve" smooth="yes"/>
      <point x="838" y="346"/>
      <point x="918" y="419" type="qcurve" smooth="yes"/>
      <point x="1025" y="516"/>
      <point x="1025" y="600" type="qcurve" smooth="yes"/>
      <point x="1025" y="680"/>
      <point x="931" y="824"/>
      <point x="931" y="924" type="qcurve" smooth="yes"/>
      <point x="931" y="1200"/>
      <point x="1276" y="1200" type="qcurve" smooth="yes"/>
      <point x="1621" y="1200"/>
      <point x="1621" y="884" type="qcurve" smooth="yes"/>
      <point x="1621" y="734"/>
      <point x="1464" y="655" type="qcurve"/>
      <point x="1401" y="746" type="line"/>
      <point x="1471" y="792"/>
      <point x="1471" y="861" type="qcurve" smooth="yes"/>
      <point x="1471" y="930"/>
      <point x="1276" y="930" type="qcurve" smooth="yes"/>
      <point x="1086" y="930"/>
      <point x="1086" y="866" type="qcurve" smooth="yes"/>
      <point x="1086" y="863" type="line"/>
      <point x="1091" y="796"/>
      <point x="1175" y="710"/>
      <point x="1175" y="600" type="qcurve" smooth="yes"/>
      <point x="1175" y="587"/>
    </contour>
  </outline>
</glyph>
<glyph name="uniAA2D" format="1">
  <advance width="0"/>
  <unicode hex="AA2D"/>
  <outline>
    <contour>
      <point x="-82" y="566" type="qcurve"/>
      <point x="38" y="530" type="line"/>
      <point x="56" y="489"/>
      <point x="56" y="433" type="qcurve" smooth="yes"/>
      <point x="56" y="417"/>
      <point x="55" y="401" type="qcurve" smooth="yes"/>
      <point x="48" y="304"/>
      <point x="-56" y="234"/>
      <point x="-291" y="208"/>
      <point x="-320" y="187" type="qcurve" smooth="yes"/>
      <point x="-352" y="164"/>
      <point x="-365" y="140" type="qcurve" smooth="yes"/>
      <point x="-375" y="122"/>
      <point x="-375" y="99" type="qcurve" smooth="yes"/>
      <point x="-375" y="91"/>
      <point x="-374" y="82" type="qcurve"/>
      <point x="-495" y="67" type="line"/>
      <point x="-515" y="163"/>
      <point x="-515" y="220" type="qcurve" smooth="yes"/>
      <point x="-515" y="234"/>
      <point x="-513" y="249" type="qcurve" smooth="yes"/>
      <point x="-507" y="323"/>
      <point x="-465" y="353" type="qcurve" smooth="yes"/>
      <point x="-410" y="393"/>
      <point x="-166" y="415"/>
      <point x="-135" y="437" type="qcurve" smooth="yes"/>
      <point x="-102" y="462"/>
      <point x="-89" y="501" type="qcurve" smooth="yes"/>
      <point x="-80" y="528"/>
      <point x="-80" y="548" type="qcurve" smooth="yes"/>
      <point x="-80" y="558"/>
    </contour>
  </outline>
</glyph>
<glyph name="uniAA31" format="1">
  <advance width="0"/>
  <unicode hex="AA31"/>
  <outline>
    <contour>
      <point x="-90" y="1997" type="qcurve"/>
      <point x="1" y="1958" type="line"/>
      <point x="1" y="1849"/>
      <point x="-82" y="1721" type="qcurve" smooth="yes"/>
      <point x="-117" y="1672"/>
      <point x="-218" y="1672" type="qcurve" smooth="yes"/>
      <point x="-245" y="1672"/>
      <point x="-278" y="1676" type="qcurve" smooth="yes"/>
      <point x="-331" y="1684"/>
      <point x="-371" y="1684" type="qcurve" smooth="yes"/>
      <point x="-432" y="1684"/>
      <point x="-463" y="1665" type="qcurve"/>
      <point x="-493" y="1621"/>
      <point x="-493" y="1583" type="qcurve" smooth="yes"/>
      <point x="-493" y="1542"/>
      <point x="-458" y="1509" type="qcurve" smooth="yes"/>
      <point x="-414" y="1465"/>
      <point x="-356" y="1465" type="qcurve" smooth="yes"/>
      <point x="-327" y="1465"/>
      <point x="-294" y="1476" type="qcurve" smooth="yes"/>
      <point x="-198" y="1509"/>
      <point x="-168" y="1629" type="qcurve"/>
      <point x="4" y="1601" type="line"/>
      <point x="9" y="1568"/>
      <point x="9" y="1534" type="qcurve" smooth="yes"/>
      <point x="9" y="1419"/>
      <point x="-38" y="1250" type="qcurve"/>
      <point x="-182" y="1232" type="line"/>
      <point x="-167" y="1324"/>
      <point x="-152" y="1406" type="qcurve"/>
      <point x="-162" y="1377"/>
      <point x="-197" y="1346" type="qcurve" smooth="yes"/>
      <point x="-294" y="1246"/>
      <point x="-388" y="1246" type="qcurve" smooth="yes"/>
      <point x="-473" y="1246"/>
      <point x="-555" y="1325" type="qcurve" smooth="yes"/>
      <point x="-653" y="1420"/>
      <point x="-653" y="1532" type="qcurve" smooth="yes"/>
      <point x="-653" y="1620"/>
      <point x="-585" y="1733" type="qcurve" smooth="yes"/>
      <point x="-527" y="1830"/>
      <point x="-350" y="1830" type="qcurve" smooth="yes"/>
      <point x="-322" y="1830"/>
      <point x="-291" y="1828" type="qcurve"/>
      <point x="-274" y="1822"/>
      <point x="-258" y="1822" type="qcurve" smooth="yes"/>
      <point x="-169" y="1822"/>
    </contour>
  </outline>
</glyph>
<glyph name="uniAA32" format="1">
  <advance width="0"/>
  <unicode hex="AA32"/>
  <outline>
    <contour>
      <point x="-335" y="363" type="qcurve" smooth="yes"/>
      <point x="-335" y="487"/>
      <point x="-190" y="487" type="qcurve" smooth="yes"/>
      <point x="-58" y="487"/>
      <point x="-58" y="345" type="qcurve" smooth="yes"/>
      <point x="-58" y="239" type="line" smooth="yes"/>
      <point x="-58" y="-53"/>
      <point x="-305" y="-83" type="qcurve"/>
      <point x="-328" y="31" type="line"/>
      <point x="-242" y="45"/>
      <point x="-205" y="173"/>
      <point x="-205" y="239" type="qcurve"/>
      <point x="-335" y="239"/>
    </contour>
  </outline>
</glyph>
<glyph name="uniAA33" format="1">
  <advance width="850"/>
  <unicode hex="AA33"/>
  <outline>
    <contour>
      <point x="-166" y="688" type="line"/>
      <point x="-73" y="680"/>
      <point x="61" y="559"/>
      <point x="93" y="479" type="qcurve"/>
      <point x="114" y="518"/>
      <point x="114" y="539" type="qcurve" smooth="yes"/>
      <point x="114" y="584"/>
      <point x="92" y="629" type="qcurve" smooth="yes"/>
      <point x="50" y="726"/>
      <point x="50" y="850" type="qcurve" smooth="yes"/>
      <point x="50" y="1200"/>
      <point x="400" y="1200" type="qcurve" smooth="yes"/>
      <point x="750" y="1200"/>
      <point x="750" y="870" type="qcurve" smooth="yes"/>
      <point x="750" y="692"/>
      <point x="606" y="562" type="qcurve"/>
      <point x="500" y="637" type="line"/>
      <point x="580" y="712"/>
      <point x="580" y="821" type="qcurve" smooth="yes"/>
      <point x="580" y="930"/>
      <point x="400" y="930" type="qcurve" smooth="yes"/>
      <point x="210" y="930"/>
      <point x="210" y="829" type="qcurve" smooth="yes"/>
      <point x="210" y="728"/>
      <point x="234" y="673" type="qcurve" smooth="yes"/>
      <point x="261" y="603"/>
      <point x="261" y="548" type="qcurve" smooth="yes"/>
      <point x="261" y="527"/>
      <point x="258" y="509" type="qcurve" smooth="yes"/>
      <point x="232" y="384"/>
      <point x="106" y="292" type="qcurve"/>
      <point x="9" y="341" type="line"/>
      <point x="-83" y="524"/>
      <point x="-225" y="559" type="qcurve"/>
    </contour>
  </outline>
</glyph>
<glyph name="uniAA34" format="1">
  <advance width="397"/>
  <unicode hex="AA34"/>
  <outline>
    <contour>
      <point x="152" y="994" type="qcurve" smooth="yes"/>
      <point x="203" y="1155"/>
      <point x="302" y="1268" type="qcurve"/>
      <point x="237" y="1283"/>
      <point x="208" y="1323" type="qcurve" smooth="yes"/>
      <point x="183" y="1356"/>
      <point x="149" y="1356" type="qcurve" smooth="yes"/>
      <point x="141" y="1356"/>
      <point x="133" y="1354" type="qcurve" smooth="yes"/>
      <point x="89" y="1345"/>
      <point x="89" y="1300" type="qcurve" smooth="yes"/>
      <point x="89" y="1298" type="line"/>
      <point x="-75" y="1368" type="line"/>
      <point x="-40" y="1504"/>
      <point x="86" y="1603"/>
      <point x="149" y="1603" type="qcurve" smooth="yes"/>
      <point x="211" y="1603"/>
      <point x="313" y="1541"/>
      <point x="363" y="1521" type="qcurve" smooth="yes"/>
      <point x="375" y="1516"/>
      <point x="391" y="1516" type="qcurve" smooth="yes"/>
      <point x="443" y="1516"/>
      <point x="536" y="1564" type="qcurve"/>
      <point x="667" y="1384" type="line"/>
      <point x="581" y="1343"/>
      <point x="379" y="1093"/>
      <point x="270" y="749"/>
      <point x="270" y="539" type="qcurve" smooth="yes"/>
      <point x="270" y="388"/>
      <point x="365" y="22"/>
      <point x="513" y="-129" type="qcurve"/>
      <point x="569" y="-98"/>
      <point x="604" y="-98" type="qcurve" smooth="yes"/>
      <point x="639" y="-98"/>
      <point x="700" y="-114"/>
      <point x="768" y="-172"/>
      <point x="813" y="-172" type="qcurve" smooth="yes"/>
      <point x="904" y="-172"/>
      <point x="909" y="-72" type="qcurve"/>
      <point x="1039" y="-202" type="line"/>
      <point x="1036" y="-315"/>
      <point x="902" y="-423"/>
      <point x="805" y="-423" type="qcurve" smooth="yes"/>
      <point x="774" y="-423"/>
      <point x="703" y="-392"/>
      <point x="640" y="-366"/>
      <point x="595" y="-366" type="qcurve" smooth="yes"/>
      <point x="550" y="-366"/>
      <point x="475" y="-408" type="qcurve"/>
      <point x="452" y="-388" type="line"/>
      <point x="259" y="-144"/>
      <point x="100" y="246"/>
      <point x="100" y="539" type="qcurve" smooth="yes"/>
      <point x="100" y="832"/>
    </contour>
  </outline>
</glyph>
<glyph name="uniAA35" format="1">
  <advance width="0"/>
  <unicode hex="AA35"/>
  <outline>
    <contour>
      <point x="-445" y="-250" type="qcurve"/>
      <point x="-425" y="-220"/>
      <point x="-374" y="-220" type="qcurve" smooth="yes"/>
      <point x="-362" y="-220" type="line"/>
      <point x="-301" y="-224"/>
      <point x="-272" y="-286" type="qcurve" smooth="yes"/>
      <point x="-261" y="-313"/>
      <point x="-261" y="-339" type="qcurve" smooth="yes"/>
      <point x="-261" y="-375"/>
      <point x="-283" y="-412" type="qcurve" smooth="yes"/>
      <point x="-323" y="-475"/>
      <point x="-461" y="-475" type="qcurve" smooth="yes"/>
      <point x="-607" y="-474"/>
      <point x="-644" y="-314" type="qcurve" smooth="yes"/>
      <point x="-657" y="-262"/>
      <point x="-657" y="-217" type="qcurve" smooth="yes"/>
      <point x="-657" y="-122"/>
      <point x="-604" y="-55" type="qcurve" smooth="yes"/>
      <point x="-534" y="35"/>
      <point x="-419" y="35" type="qcurve" smooth="yes"/>
      <point x="-394" y="35" type="line"/>
      <point x="-261" y="24"/>
      <point x="-211" y="24" type="qcurve" smooth="yes"/>
      <point x="-161" y="24"/>
      <point x="-121" y="100"/>
      <point x="-117" y="157" type="qcurve"/>
      <point x="24" y="137" type="line"/>
      <point x="23" y="6"/>
      <point x="-55" y="-139"/>
      <point x="-144" y="-151" type="qcurve" smooth="yes"/>
      <point x="-191" y="-157"/>
      <point x="-244" y="-157" type="qcurve" smooth="yes"/>
      <point x="-293" y="-157"/>
      <point x="-346" y="-152" type="qcurve" smooth="yes"/>
      <point x="-357" y="-151"/>
      <point x="-366" y="-151" type="qcurve" smooth="yes"/>
      <point x="-447" y="-151"/>
      <point x="-447" y="-227" type="qcurve" smooth="yes"/>
      <point x="-447" y="-238"/>
    </contour>
  </outline>
</glyph>
<glyph name="uniAA36" format="1">
  <advance width="0"/>
  <unicode hex="AA36"/>
  <outline>
    <contour>
      <point x="-97" y="-33" type="qcurve"/>
      <point x="-176" y="-86"/>
      <point x="-210" y="-159" type="qcurve" smooth="yes"/>
      <point x="-232" y="-207"/>
      <point x="-232" y="-236" type="qcurve" smooth="yes"/>
      <point x="-232" y="-251"/>
      <point x="-226" y="-260" type="qcurve" smooth="yes"/>
      <point x="-217" y="-276"/>
      <point x="-193" y="-276" type="qcurve" smooth="yes"/>
      <point x="-174" y="-276"/>
      <point x="-146" y="-266" type="qcurve" smooth="yes"/>
      <point x="-83" y="-244"/>
      <point x="-78" y="-147" type="qcurve"/>
      <point x="-78" y="-142" type="line" smooth="yes"/>
      <point x="-78" y="-93"/>
    </contour>
    <contour>
      <point x="29" y="37" type="line" smooth="yes"/>
      <point x="50" y="-23"/>
      <point x="53" y="-74" type="qcurve" smooth="yes"/>
      <point x="56" y="-107"/>
      <point x="56" y="-137" type="qcurve" smooth="yes"/>
      <point x="56" y="-277"/>
      <point x="-8" y="-362" type="qcurve"/>
      <point x="-84" y="-455"/>
      <point x="-176" y="-456" type="qcurve" smooth="yes"/>
      <point x="-178" y="-456" type="line" smooth="yes"/>
      <point x="-268" y="-456"/>
      <point x="-319" y="-394" type="qcurve" smooth="yes"/>
      <point x="-364" y="-341"/>
      <point x="-364" y="-260" type="qcurve" smooth="yes"/>
      <point x="-364" y="-247"/>
      <point x="-363" y="-233" type="qcurve" smooth="yes"/>
      <point x="-354" y="-134"/>
      <point x="-297" y="-55" type="qcurve" smooth="yes"/>
      <point x="-217" y="56"/>
      <point x="-136" y="95" type="qcurve"/>
      <point x="-154" y="137"/>
      <point x="-181" y="186" type="qcurve"/>
      <point x="-59" y="232" type="line"/>
      <point x="-26" y="173"/>
      <point x="-1" y="118" type="qcurve"/>
    </contour>
  </outline>
</glyph>
<glyph name="uniAA42" format="1">
  <advance width="1580"/>
  <unicode hex="AA42"/>
  <outline>
    <contour>
      <point x="1162" y="1000" type="qcurve" smooth="yes"/>
      <point x="1132" y="1000"/>
      <point x="1130" y="979" type="qcurve" smooth="yes"/>
      <point x="1129" y="976"/>
      <point x="1129" y="973" type="qcurve" smooth="yes"/>
      <point x="1129" y="954"/>
      <point x="1144" y="925" type="qcurve" smooth="yes"/>
      <point x="1166" y="880"/>
      <point x="1192" y="872" type="qcurve"/>
      <point x="1200" y="896"/>
      <point x="1200" y="924" type="qcurve" smooth="yes"/>
      <point x="1200" y="939"/>
      <point x="1198" y="954" type="qcurve" smooth="yes"/>
      <point x="1192" y="1000"/>
    </contour>
    <contour>
      <point x="773" y="0" type="qcurve"/>
      <point x="661" y="95" type="line"/>
      <point x="705" y="169"/>
      <point x="728" y="257" type="qcurve" smooth="yes"/>
      <point x="734" y="280"/>
      <point x="734" y="302" type="qcurve" smooth="yes"/>
      <point x="734" y="432"/>
      <point x="519" y="511" type="qcurve"/>
      <point x="515" y="610" type="line" smooth="yes"/>
      <point x="515" y="611"/>
      <point x="516" y="612" type="qcurve" smooth="yes"/>
      <point x="660" y="711"/>
      <point x="660" y="821" type="qcurve" smooth="yes"/>
      <point x="660" y="930"/>
      <point x="465" y="930" type="qcurve" smooth="yes"/>
      <point x="270" y="930"/>
      <point x="270" y="804" type="qcurve" smooth="yes"/>
      <point x="270" y="678"/>
      <point x="410" y="637" type="qcurve"/>
      <point x="357" y="525" type="line"/>
      <point x="100" y="570"/>
      <point x="100" y="830" type="qcurve" smooth="yes"/>
      <point x="100" y="1200"/>
      <point x="460" y="1200" type="qcurve" smooth="yes"/>
      <point x="820" y="1200"/>
      <point x="820" y="850" type="qcurve" smooth="yes"/>
      <point x="820" y="705"/>
      <point x="714" y="577" type="qcurve"/>
      <point x="832" y="522"/>
      <point x="868" y="451" type="qcurve" smooth="yes"/>
      <point x="893" y="402"/>
      <point x="893" y="345" type="qcurve" smooth="yes"/>
      <point x="893" y="320"/>
      <point x="888" y="293" type="qcurve"/>
      <point x="1099" y="397"/>
      <point x="1174" y="727" type="qcurve"/>
      <point x="1087" y="759"/>
      <point x="1046" y="827" type="qcurve" smooth="yes"/>
      <point x="996" y="909"/>
      <point x="996" y="1023" type="qcurve" smooth="yes"/>
      <point x="996" y="1032" type="line"/>
      <point x="1011" y="1200"/>
      <point x="1169" y="1200" type="qcurve" smooth="yes"/>
      <point x="1327" y="1200"/>
      <point x="1346" y="1017" type="qcurve" smooth="yes"/>
      <point x="1347" y="994"/>
      <point x="1347" y="971" type="qcurve" smooth="yes"/>
      <point x="1347" y="888"/>
      <point x="1338" y="809" type="qcurve"/>
      <point x="1480" y="760"/>
      <point x="1480" y="556" type="qcurve" smooth="yes"/>
      <point x="1480" y="493"/>
      <point x="1467" y="417" type="qcurve" smooth="yes"/>
      <point x="1410" y="78"/>
      <point x="1274" y="-31" type="qcurve"/>
      <point x="1158" y="68" type="line"/>
      <point x="1222" y="108"/>
      <point x="1299" y="274"/>
      <point x="1333" y="460" type="qcurve" smooth="yes"/>
      <point x="1346" y="528"/>
      <point x="1346" y="572" type="qcurve" smooth="yes"/>
      <point x="1346" y="648"/>
      <point x="1309" y="652" type="qcurve"/>
      <point x="1206" y="174"/>
    </contour>
  </outline>
</glyph>
<glyph name="uniAA43" format="1">
  <advance width="0"/>
  <unicode hex="AA43"/>
  <outline>
    <contour>
      <point x="-452" y="1551" type="line"/>
      <point x="-68" y="1808"/>
      <point x="-11" y="1961" type="qcurve"/>
      <point x="172" y="1913" type="line"/>
      <point x="150" y="1690"/>
      <point x="-282" y="1367" type="qcurve"/>
    </contour>
  </outline>
</glyph>
<glyph name="uniAA44" format="1">
  <advance width="1700"/>
  <unicode hex="AA44"/>
  <outline>
    <contour>
      <point x="628" y="436" type="qcurve"/>
      <point x="462" y="325"/>
      <point x="462" y="263" type="qcurve" smooth="yes"/>
      <point x="462" y="201"/>
      <point x="507" y="201" type="qcurve" smooth="yes"/>
      <point x="550" y="201"/>
      <point x="611" y="319"/>
    </contour>
    <contour>
      <point x="820" y="800" type="qcurve" smooth="yes"/>
      <point x="820" y="749"/>
      <point x="817" y="677" type="qcurve"/>
      <point x="880" y="704"/>
      <point x="900" y="830" type="qcurve"/>
      <point x="902" y="1200"/>
      <point x="1250" y="1200" type="qcurve" smooth="yes"/>
      <point x="1600" y="1200"/>
      <point x="1600" y="700" type="qcurve" smooth="yes"/>
      <point x="1600" y="239"/>
      <point x="1119" y="-101" type="qcurve"/>
      <point x="1034" y="7" type="line"/>
      <point x="1440" y="315"/>
      <point x="1440" y="700" type="qcurve" smooth="yes"/>
      <point x="1440" y="930"/>
      <point x="1250" y="930" type="qcurve" smooth="yes"/>
      <point x="1076" y="930"/>
      <point x="1060" y="830" type="qcurve"/>
      <point x="1041" y="572"/>
      <point x="796" y="491" type="qcurve"/>
      <point x="766" y="195"/>
      <point x="598" y="0"/>
      <point x="507" y="0" type="qcurve" smooth="yes"/>
      <point x="316" y="0"/>
      <point x="306" y="210" type="qcurve"/>
      <point x="316" y="420"/>
      <point x="570" y="562" type="qcurve"/>
      <point x="645" y="606" type="line"/>
      <point x="660" y="703"/>
      <point x="660" y="800" type="qcurve" smooth="yes"/>
      <point x="660" y="930"/>
      <point x="465" y="930" type="qcurve" smooth="yes"/>
      <point x="270" y="930"/>
      <point x="270" y="804" type="qcurve" smooth="yes"/>
      <point x="270" y="678"/>
      <point x="410" y="637" type="qcurve"/>
      <point x="357" y="525" type="line"/>
      <point x="100" y="570"/>
      <point x="100" y="830" type="qcurve" smooth="yes"/>
      <point x="100" y="1200"/>
      <point x="460" y="1200" type="qcurve" smooth="yes"/>
      <point x="820" y="1200"/>
    </contour>
  </outline>
</glyph>
<glyph name="uniAA45" format="1">
  <advance width="1700"/>
  <unicode hex="AA45"/>
  <outline>
    <contour>
      <point x="370" y="350" type="qcurve" smooth="yes"/>
      <point x="370" y="311"/>
      <point x="423" y="240"/>
      <point x="518" y="200"/>
      <point x="570" y="200" type="qcurve" smooth="yes"/>
      <point x="622" y="200"/>
      <point x="717" y="240"/>
      <point x="770" y="311"/>
      <point x="770" y="350" type="qcurve" smooth="yes"/>
      <point x="770" y="389"/>
      <point x="716" y="461"/>
      <point x="620" y="500"/>
      <point x="570" y="500" type="qcurve" smooth="yes"/>
      <point x="520" y="500"/>
      <point x="424" y="461"/>
      <point x="370" y="389"/>
    </contour>
    <contour>
      <point x="176" y="293" type="qcurve"/>
      <point x="100" y="549"/>
      <point x="100" y="720" type="qcurve" smooth="yes"/>
      <point x="100" y="1200"/>
      <point x="477" y="1200" type="qcurve" smooth="yes"/>
      <point x="732" y="1200"/>
      <point x="820" y="1021" type="qcurve"/>
      <point x="911" y="1200"/>
      <point x="1187" y="1200" type="qcurve" smooth="yes"/>
      <point x="1600" y="1200"/>
      <point x="1600" y="700" type="qcurve" smooth="yes"/>
      <point x="1600" y="239"/>
      <point x="1290" y="0" type="qcurve"/>
      <point x="1205" y="108" type="line"/>
      <point x="1440" y="315"/>
      <point x="1440" y="700" type="qcurve" smooth="yes"/>
      <point x="1440" y="930"/>
      <point x="1177" y="930" type="qcurve" smooth="yes"/>
      <point x="923" y="930"/>
      <point x="859" y="780" type="qcurve"/>
      <point x="767" y="780" type="line"/>
      <point x="715" y="930"/>
      <point x="493" y="930" type="qcurve" smooth="yes"/>
      <point x="260" y="930"/>
      <point x="260" y="720" type="qcurve" smooth="yes"/>
      <point x="260" y="638"/>
      <point x="277" y="556" type="qcurve"/>
      <point x="334" y="630"/>
      <point x="481" y="700"/>
      <point x="570" y="700" type="qcurve" smooth="yes"/>
      <point x="658" y="700"/>
      <point x="825" y="610"/>
      <point x="920" y="441"/>
      <point x="920" y="350" type="qcurve" smooth="yes"/>
      <point x="920" y="259"/>
      <point x="828" y="92"/>
      <point x="661" y="0"/>
      <point x="570" y="0" type="qcurve" smooth="yes"/>
      <point x="429" y="0"/>
      <point x="242" y="112"/>
    </contour>
  </outline>
</glyph>
<glyph name="uniAA47" format="1">
  <advance width="1771"/>
  <unicode hex="AA47"/>
  <outline>
    <contour>
      <point x="-150" y="300" type="qcurve" smooth="yes"/>
      <point x="-150" y="274"/>
      <point x="-110" y="227"/>
      <point x="-39" y="200"/>
      <point x="0" y="200" type="qcurve" smooth="yes"/>
      <point x="39" y="200"/>
      <point x="110" y="227"/>
      <point x="150" y="274"/>
      <point x="150" y="300" type="qcurve" smooth="yes"/>
      <point x="150" y="326"/>
      <point x="110" y="374"/>
      <point x="38" y="400"/>
      <point x="0" y="400" type="qcurve" smooth="yes"/>
      <point x="-38" y="400"/>
      <point x="-109" y="374"/>
      <point x="-150" y="326"/>
    </contour>
    <contour>
      <point x="381" y="824" type="qcurve" smooth="yes"/>
      <point x="381" y="766"/>
      <point x="515" y="540"/>
      <point x="515" y="420" type="qcurve" smooth="yes"/>
      <point x="515" y="0"/>
      <point x="105" y="0" type="qcurve" smooth="yes"/>
      <point x="0" y="0" type="line" smooth="yes"/>
      <point x="-78" y="0"/>
      <point x="-221" y="79"/>
      <point x="-300" y="222"/>
      <point x="-300" y="300" type="qcurve" smooth="yes"/>
      <point x="-300" y="378"/>
      <point x="-219" y="523"/>
      <point x="-76" y="600"/>
      <point x="0" y="600" type="qcurve" smooth="yes"/>
      <point x="75" y="600"/>
      <point x="219" y="523"/>
      <point x="300" y="378"/>
      <point x="300" y="300" type="qcurve" smooth="yes"/>
      <point x="300" y="242"/>
      <point x="281" y="191" type="qcurve"/>
      <point x="365" y="227"/>
      <point x="365" y="420" type="qcurve" smooth="yes"/>
      <point x="365" y="530"/>
      <point x="221" y="734"/>
      <point x="221" y="824" type="qcurve" smooth="yes"/>
      <point x="221" y="1200"/>
      <point x="588" y="1200" type="qcurve" smooth="yes"/>
      <point x="843" y="1200"/>
      <point x="931" y="1021" type="qcurve"/>
      <point x="1022" y="1200"/>
      <point x="1278" y="1200" type="qcurve" smooth="yes"/>
      <point x="1671" y="1200"/>
      <point x="1671" y="700" type="qcurve" smooth="yes"/>
      <point x="1671" y="239"/>
      <point x="1361" y="0" type="qcurve"/>
      <point x="1276" y="108" type="line"/>
      <point x="1511" y="315"/>
      <point x="1511" y="700" type="qcurve" smooth="yes"/>
      <point x="1511" y="930"/>
      <point x="1268" y="930" type="qcurve" smooth="yes"/>
      <point x="1034" y="930"/>
      <point x="970" y="780" type="qcurve"/>
      <point x="878" y="780" type="line"/>
      <point x="826" y="930"/>
      <point x="604" y="930" type="qcurve" smooth="yes"/>
      <point x="381" y="930"/>
    </contour>
  </outline>
</glyph>
<glyph name="uniAA49" format="1">
  <advance width="1061"/>
  <unicode hex="AA49"/>
  <outline>
    <contour>
      <point x="-150" y="300" type="qcurve" smooth="yes"/>
      <point x="-150" y="274"/>
      <point x="-110" y="227"/>
      <point x="-39" y="200"/>
      <point x="0" y="200" type="qcurve" smooth="yes"/>
      <point x="39" y="200"/>
      <point x="110" y="227"/>
      <point x="150" y="274"/>
      <point x="150" y="300" type="qcurve" smooth="yes"/>
      <point x="150" y="326"/>
      <point x="110" y="374"/>
      <point x="38" y="400"/>
      <point x="0" y="400" type="qcurve" smooth="yes"/>
      <point x="-38" y="400"/>
      <point x="-109" y="374"/>
      <point x="-150" y="326"/>
    </contour>
    <contour>
      <point x="421" y="868" type="qcurve" smooth="yes"/>
      <point x="421" y="806"/>
      <point x="525" y="620"/>
      <point x="525" y="530" type="qcurve" smooth="yes"/>
      <point x="525" y="330"/>
      <point x="205" y="0"/>
      <point x="0" y="0" type="qcurve" smooth="yes"/>
      <point x="-78" y="0"/>
      <point x="-221" y="79"/>
      <point x="-300" y="222"/>
      <point x="-300" y="300" type="qcurve" smooth="yes"/>
      <point x="-300" y="378"/>
      <point x="-219" y="523"/>
      <point x="-76" y="600"/>
      <point x="0" y="600" type="qcurve" smooth="yes"/>
      <point x="75" y="600"/>
      <point x="219" y="523"/>
      <point x="300" y="378"/>
      <point x="300" y="300" type="qcurve"/>
      <point x="375" y="367"/>
      <point x="375" y="530" type="qcurve" smooth="yes"/>
      <point x="375" y="610"/>
      <point x="271" y="774"/>
      <point x="271" y="884" type="qcurve" smooth="yes"/>
      <point x="271" y="1200"/>
      <point x="616" y="1200" type="qcurve" smooth="yes"/>
      <point x="961" y="1200"/>
      <point x="961" y="700" type="qcurve" smooth="yes"/>
      <point x="961" y="239"/>
      <point x="510" y="-101" type="qcurve"/>
      <point x="425" y="7" type="line"/>
      <point x="791" y="315"/>
      <point x="791" y="700" type="qcurve" smooth="yes"/>
      <point x="791" y="930"/>
      <point x="616" y="930" type="qcurve" smooth="yes"/>
      <point x="421" y="930"/>
    </contour>
  </outline>
</glyph>
<glyph name="uniAA50" format="1">
  <advance width="1200"/>
  <unicode hex="AA50"/>
  <outline>
    <contour>
      <point x="344" y="857"/>
      <point x="250" y="696"/>
      <point x="250" y="600" type="qcurve" smooth="yes"/>
      <point x="250" y="504"/>
      <point x="342" y="344"/>
      <point x="509" y="270"/>
      <point x="600" y="270" type="qcurve" smooth="yes"/>
      <point x="691" y="270"/>
      <point x="858" y="344"/>
      <point x="950" y="504"/>
      <point x="950" y="600" type="qcurve" smooth="yes"/>
      <point x="950" y="696"/>
      <point x="856" y="857"/>
      <point x="688" y="930"/>
      <point x="600" y="930" type="qcurve" smooth="yes"/>
      <point x="512" y="930"/>
    </contour>
    <contour>
      <point x="600" y="1200" type="qcurve" smooth="yes"/>
      <point x="726" y="1200"/>
      <point x="965" y="1045"/>
      <point x="1100" y="757"/>
      <point x="1100" y="600" type="qcurve" smooth="yes"/>
      <point x="1100" y="443"/>
      <point x="968" y="158"/>
      <point x="730" y="0"/>
      <point x="600" y="0" type="qcurve" smooth="yes"/>
      <point x="470" y="0"/>
      <point x="232" y="158"/>
      <point x="100" y="443"/>
      <point x="100" y="600" type="qcurve" smooth="yes"/>
      <point x="100" y="757"/>
      <point x="234" y="1045"/>
      <point x="473" y="1200"/>
    </contour>
  </outline>
</glyph>
<glyph name="uniAA52" format="1">
  <advance width="1950"/>
  <unicode hex="AA52"/>
  <outline>
    <contour>
      <point x="700" y="1300" type="qcurve" smooth="yes"/>
      <point x="250" y="1300"/>
      <point x="250" y="750" type="qcurve" smooth="yes"/>
      <point x="250" y="200"/>
      <point x="975" y="200" type="qcurve" smooth="yes"/>
      <point x="1700" y="200"/>
      <point x="1700" y="760" type="qcurve" smooth="yes"/>
      <point x="1700" y="930"/>
      <point x="1445" y="930" type="qcurve" smooth="yes"/>
      <point x="1283" y="930"/>
      <point x="1192" y="870" type="qcurve" smooth="yes"/>
      <point x="1146" y="840"/>
      <point x="1100" y="840" type="qcurve" smooth="yes"/>
      <point x="1055" y="840"/>
      <point x="1009" y="870" type="qcurve" smooth="yes"/>
      <point x="918" y="930"/>
      <point x="755" y="930" type="qcurve" smooth="yes"/>
      <point x="500" y="930"/>
      <point x="500" y="720" type="qcurve" smooth="yes"/>
      <point x="500" y="538"/>
      <point x="585" y="489" type="qcurve"/>
      <point x="585" y="495" type="line" smooth="yes"/>
      <point x="585" y="528"/>
      <point x="658" y="570"/>
      <point x="710" y="570" type="qcurve" smooth="yes"/>
      <point x="741" y="570"/>
      <point x="801" y="538"/>
      <point x="835" y="478"/>
      <point x="835" y="445" type="qcurve" smooth="yes"/>
      <point x="835" y="412"/>
      <point x="802" y="353"/>
      <point x="742" y="320"/>
      <point x="710" y="320" type="qcurve" smooth="yes"/>
      <point x="350" y="320"/>
      <point x="350" y="720" type="qcurve" smooth="yes"/>
      <point x="350" y="1200"/>
      <point x="755" y="1200" type="qcurve" smooth="yes"/>
      <point x="888" y="1200"/>
      <point x="994" y="1130" type="qcurve" smooth="yes"/>
      <point x="1047" y="1095"/>
      <point x="1100" y="1095" type="qcurve" smooth="yes"/>
      <point x="1153" y="1095"/>
      <point x="1207" y="1130" type="qcurve" smooth="yes"/>
      <point x="1313" y="1200"/>
      <point x="1445" y="1200" type="qcurve" smooth="yes"/>
      <point x="1850" y="1200"/>
      <point x="1850" y="760" type="qcurve" smooth="yes"/>
      <point x="1850" y="0"/>
      <point x="975" y="0" type="qcurve" smooth="yes"/>
      <point x="100" y="0"/>
      <point x="100" y="750" type="qcurve" smooth="yes"/>
      <point x="100" y="1500"/>
      <point x="700" y="1500" type="qcurve" smooth="yes"/>
      <point x="926" y="1500"/>
      <point x="1046" y="1435" type="qcurve" smooth="yes"/>
      <point x="1104" y="1405"/>
      <point x="1162" y="1405" type="qcurve" smooth="yes"/>
      <point x="1345" y="1405"/>
      <point x="1537" y="1700" type="qcurve"/>
      <point x="1670" y="1596" type="line"/>
      <point x="1365" y="1190"/>
      <point x="1173" y="1190" type="qcurve" smooth="yes"/>
      <point x="1135" y="1190"/>
      <point x="1102" y="1206" type="qcurve" smooth="yes"/>
      <point x="898" y="1300"/>
    </contour>
  </outline>
</glyph>
<glyph name="uniAA54" format="1">
  <advance width="1289"/>
  <unicode hex="AA54"/>
  <outline>
    <contour>
      <point x="190" y="174" type="line"/>
      <point x="115" y="304"/>
      <point x="102" y="450" type="qcurve" smooth="yes"/>
      <point x="100" y="476"/>
      <point x="100" y="502" type="qcurve" smooth="yes"/>
      <point x="100" y="619"/>
      <point x="147" y="728" type="qcurve" smooth="yes"/>
      <point x="215" y="882"/>
      <point x="374" y="947" type="qcurve" smooth="yes"/>
      <point x="423" y="967"/>
      <point x="477" y="967" type="qcurve" smooth="yes"/>
      <point x="598" y="967"/>
      <point x="746" y="865" type="qcurve"/>
      <point x="837" y="814"/>
      <point x="914" y="814" type="qcurve" smooth="yes"/>
      <point x="1071" y="814"/>
      <point x="1164" y="1030" type="qcurve"/>
      <point x="1275" y="949" type="line"/>
      <point x="1094" y="545"/>
      <point x="890" y="545" type="qcurve" smooth="yes"/>
      <point x="832" y="545"/>
      <point x="772" y="578" type="qcurve" smooth="yes"/>
      <point x="562" y="692"/>
      <point x="460" y="692" type="qcurve" smooth="yes"/>
      <point x="430" y="692"/>
      <point x="409" y="683" type="qcurve" smooth="yes"/>
      <point x="316" y="639"/>
      <point x="282" y="567" type="qcurve" smooth="yes"/>
      <point x="267" y="534"/>
      <point x="267" y="488" type="qcurve" smooth="yes"/>
      <point x="267" y="432"/>
      <point x="289" y="357" type="qcurve"/>
      <point x="310" y="427"/>
      <point x="447" y="499"/>
      <point x="528" y="500" type="qcurve" smooth="yes"/>
      <point x="530" y="500" type="line" smooth="yes"/>
      <point x="610" y="500"/>
      <point x="680" y="433" type="qcurve" smooth="yes"/>
      <point x="751" y="364"/>
      <point x="751" y="244" type="qcurve" smooth="yes"/>
      <point x="751" y="242" type="line" smooth="yes"/>
      <point x="750" y="120"/>
      <point x="661" y="50" type="qcurve" smooth="yes"/>
      <point x="593" y="-4"/>
      <point x="513" y="-4" type="qcurve" smooth="yes"/>
      <point x="487" y="-4"/>
      <point x="461" y="1" type="qcurve" smooth="yes"/>
      <point x="350" y="23"/>
      <point x="300" y="97" type="qcurve"/>
      <point x="237" y="-40" type="line"/>
      <point x="147" y="62" type="line"/>
    </contour>
    <contour>
      <point x="366" y="210" type="qcurve"/>
      <point x="387" y="183"/>
      <point x="458" y="158" type="qcurve" smooth="yes"/>
      <point x="498" y="143"/>
      <point x="529" y="143" type="qcurve" smooth="yes"/>
      <point x="551" y="143"/>
      <point x="568" y="151" type="qcurve" smooth="yes"/>
      <point x="607" y="169"/>
      <point x="609" y="229" type="qcurve" smooth="yes"/>
      <point x="609" y="232" type="line" smooth="yes"/>
      <point x="609" y="289"/>
      <point x="541" y="304" type="qcurve" smooth="yes"/>
      <point x="514" y="309"/>
      <point x="492" y="309" type="qcurve" smooth="yes"/>
      <point x="456" y="309"/>
      <point x="432" y="294" type="qcurve" smooth="yes"/>
      <point x="393" y="270"/>
    </contour>
  </outline>
</glyph>
<glyph name="uniAA55" format="1">
  <advance width="1081"/>
  <unicode hex="AA55"/>
  <outline>
    <contour>
      <point x="768" y="165" type="qcurve"/>
      <point x="721" y="170"/>
      <point x="670" y="170" type="qcurve" smooth="yes"/>
      <point x="580" y="170"/>
      <point x="580" y="145" type="qcurve" smooth="yes"/>
      <point x="580" y="120"/>
      <point x="640" y="120" type="qcurve" smooth="yes"/>
      <point x="733" y="120"/>
    </contour>
    <contour>
      <point x="100" y="750" type="qcurve" smooth="yes"/>
      <point x="100" y="1200"/>
      <point x="525" y="1200" type="qcurve" smooth="yes"/>
      <point x="950" y="1200"/>
      <point x="950" y="800" type="qcurve" smooth="yes"/>
      <point x="950" y="629"/>
      <point x="825" y="530" type="qcurve"/>
      <point x="950" y="447"/>
      <point x="950" y="320" type="qcurve" smooth="yes"/>
      <point x="950" y="297"/>
      <point x="945" y="260" type="qcurve"/>
      <point x="1015" y="243"/>
      <point x="1081" y="191" type="qcurve"/>
      <point x="1055" y="91" type="line"/>
      <point x="1011" y="133"/>
      <point x="928" y="147" type="qcurve"/>
      <point x="875" y="0"/>
      <point x="640" y="0" type="qcurve" smooth="yes"/>
      <point x="460" y="0"/>
      <point x="451" y="104" type="qcurve" smooth="yes"/>
      <point x="450" y="117"/>
      <point x="450" y="130" type="qcurve" smooth="yes"/>
      <point x="450" y="214"/>
      <point x="503" y="255" type="qcurve" smooth="yes"/>
      <point x="563" y="300"/>
      <point x="638" y="300" type="qcurve" smooth="yes"/>
      <point x="641" y="300" type="line" smooth="yes"/>
      <point x="718" y="299"/>
      <point x="787" y="292" type="qcurve"/>
      <point x="790" y="309"/>
      <point x="790" y="320" type="qcurve" smooth="yes"/>
      <point x="790" y="462"/>
      <point x="640" y="500" type="qcurve"/>
      <point x="640" y="576" type="line"/>
      <point x="790" y="635"/>
      <point x="790" y="783" type="qcurve" smooth="yes"/>
      <point x="790" y="930"/>
      <point x="530" y="930" type="qcurve" smooth="yes"/>
      <point x="260" y="930"/>
      <point x="260" y="750" type="qcurve" smooth="yes"/>
      <point x="260" y="609"/>
      <point x="305" y="550" type="qcurve"/>
      <point x="202" y="491" type="line"/>
      <point x="100" y="594"/>
    </contour>
  </outline>
</glyph>
<glyph name="uniAA59" format="1">
  <advance width="1910"/>
  <unicode hex="AA59"/>
  <outline>
    <contour>
      <point x="640" y="856" type="qcurve" smooth="yes"/>
      <point x="640" y="930"/>
      <point x="465" y="930" type="qcurve" smooth="yes"/>
      <point x="270" y="930"/>
      <point x="270" y="819" type="qcurve" smooth="yes"/>
      <point x="270" y="708"/>
      <point x="390" y="677" type="qcurve"/>
      <point x="337" y="565" type="line"/>
      <point x="100" y="600"/>
      <point x="100" y="830" type="qcurve" smooth="yes"/>
      <point x="100" y="1200"/>
      <point x="460" y="1200" type="qcurve" smooth="yes"/>
      <point x="800" y="1200"/>
      <point x="800" y="870" type="qcurve" smooth="yes"/>
      <point x="800" y="722"/>
      <point x="593" y="430"/>
      <point x="593" y="310" type="qcurve"/>
      <point x="609" y="200"/>
      <point x="841" y="200" type="qcurve" smooth="yes"/>
      <point x="1063" y="200"/>
      <point x="1063" y="336" type="qcurve" smooth="yes"/>
      <point x="1063" y="480"/>
      <point x="1024" y="690"/>
      <point x="1024" y="800" type="qcurve" smooth="yes"/>
      <point x="1024" y="1200"/>
      <point x="1400" y="1200" type="qcurve" smooth="yes"/>
      <point x="1810" y="1200"/>
      <point x="1810" y="800" type="qcurve" smooth="yes"/>
      <point x="1810" y="446"/>
      <point x="1230" y="-105"/>
      <point x="1230" y="-197" type="qcurve" smooth="yes"/>
      <point x="1230" y="-290"/>
      <point x="1296" y="-290" type="qcurve" smooth="yes"/>
      <point x="1343" y="-290"/>
      <point x="1508" y="-50"/>
      <point x="1623" y="-50" type="qcurve" smooth="yes"/>
      <point x="1790" y="-50"/>
      <point x="1790" y="-255" type="qcurve" smooth="yes"/>
      <point x="1790" y="-410"/>
      <point x="1718" y="-497" type="qcurve"/>
      <point x="1594" y="-419" type="line"/>
      <point x="1654" y="-336"/>
      <point x="1655" y="-293" type="qcurve" smooth="yes"/>
      <point x="1655" y="-292" type="line" smooth="yes"/>
      <point x="1655" y="-250"/>
      <point x="1602" y="-250" type="qcurve" smooth="yes"/>
      <point x="1568" y="-250"/>
      <point x="1391" y="-500"/>
      <point x="1296" y="-500" type="qcurve" smooth="yes"/>
      <point x="1072" y="-500"/>
      <point x="1072" y="-240" type="qcurve" smooth="yes"/>
      <point x="1072" y="-59"/>
      <point x="1650" y="541"/>
      <point x="1650" y="770" type="qcurve" smooth="yes"/>
      <point x="1650" y="930"/>
      <point x="1400" y="930" type="qcurve" smooth="yes"/>
      <point x="1184" y="930"/>
      <point x="1184" y="800" type="qcurve" smooth="yes"/>
      <point x="1184" y="678"/>
      <point x="1213" y="418"/>
      <point x="1213" y="336" type="qcurve" smooth="yes"/>
      <point x="1213" y="0"/>
      <point x="834" y="0" type="qcurve" smooth="yes"/>
      <point x="445" y="0"/>
      <point x="443" y="310" type="qcurve" smooth="yes"/>
      <point x="443" y="486"/>
      <point x="640" y="782"/>
    </contour>
  </outline>
</glyph>
<glyph name="uniAA5C" format="1">
  <advance width="1291"/>
  <unicode hex="AA5C"/>
  <outline>
    <contour>
      <point x="100" y="355" type="qcurve"/>
      <point x="105" y="550" type="line"/>
      <point x="351" y="145"/>
      <point x="547" y="145" type="qcurve" smooth="yes"/>
      <point x="563" y="145"/>
      <point x="578" y="148" type="qcurve" smooth="yes"/>
      <point x="768" y="148"/>
      <point x="905" y="292" type="qcurve" smooth="yes"/>
      <point x="912" y="299"/>
      <point x="918" y="306" type="qcurve" smooth="yes"/>
      <point x="1059" y="465"/>
      <point x="1064" y="686" type="qcurve"/>
      <point x="1064" y="706" type="line" smooth="yes"/>
      <point x="1064" y="914"/>
      <point x="969" y="1071" type="qcurve" smooth="yes"/>
      <point x="869" y="1236"/>
      <point x="616" y="1261" type="qcurve"/>
      <point x="388" y="1236"/>
      <point x="310" y="1117" type="qcurve" smooth="yes"/>
      <point x="239" y="1011"/>
      <point x="239" y="894" type="qcurve" smooth="yes"/>
      <point x="239" y="879"/>
      <point x="241" y="865" type="qcurve" smooth="yes"/>
      <point x="250" y="732"/>
      <point x="324" y="594"/>
      <point x="427" y="484"/>
      <point x="524" y="450"/>
      <point x="583" y="450" type="qcurve" smooth="yes"/>
      <point x="643" y="450"/>
      <point x="751" y="518"/>
      <point x="812" y="640"/>
      <point x="812" y="708" type="qcurve" smooth="yes"/>
      <point x="812" y="775"/>
      <point x="750" y="921"/>
      <point x="678" y="953" type="qcurve" smooth="yes"/>
      <point x="639" y="970"/>
      <point x="608" y="970" type="qcurve" smooth="yes"/>
      <point x="580" y="970"/>
      <point x="558" y="957" type="qcurve" smooth="yes"/>
      <point x="514" y="930"/>
      <point x="514" y="879" type="qcurve" smooth="yes"/>
      <point x="514" y="870" type="line"/>
      <point x="528" y="874"/>
      <point x="543" y="874" type="qcurve" smooth="yes"/>
      <point x="576" y="874"/>
      <point x="636" y="836"/>
      <point x="670" y="768"/>
      <point x="670" y="730" type="qcurve" smooth="yes"/>
      <point x="670" y="693"/>
      <point x="636" y="624"/>
      <point x="576" y="588"/>
      <point x="543" y="588" type="qcurve" smooth="yes"/>
      <point x="510" y="588"/>
      <point x="450" y="624"/>
      <point x="387" y="762"/>
      <point x="386" y="852" type="qcurve" smooth="yes"/>
      <point x="385" y="855"/>
      <point x="385" y="858" type="qcurve" smooth="yes"/>
      <point x="385" y="944"/>
      <point x="423" y="1017" type="qcurve" smooth="yes"/>
      <point x="462" y="1093"/>
      <point x="547" y="1113" type="qcurve" smooth="yes"/>
      <point x="570" y="1118"/>
      <point x="594" y="1118" type="qcurve" smooth="yes"/>
      <point x="661" y="1118"/>
      <point x="742" y="1080" type="qcurve" smooth="yes"/>
      <point x="852" y="1028"/>
      <point x="939" y="812"/>
      <point x="939" y="708" type="qcurve" smooth="yes"/>
      <point x="939" y="603"/>
      <point x="845" y="412"/>
      <point x="675" y="307"/>
      <point x="583" y="307" type="qcurve" smooth="yes"/>
      <point x="492" y="307"/>
      <point x="343" y="378"/>
      <point x="216" y="501"/>
      <point x="158" y="625" type="qcurve" smooth="yes"/>
      <point x="102" y="743"/>
      <point x="102" y="921" type="qcurve" smooth="yes"/>
      <point x="102" y="929"/>
      <point x="103" y="937" type="qcurve" smooth="yes"/>
      <point x="105" y="1125"/>
      <point x="353" y="1393"/>
      <point x="616" y="1407" type="qcurve"/>
      <point x="925" y="1393"/>
      <point x="1060" y="1184" type="qcurve" smooth="yes"/>
      <point x="1191" y="982"/>
      <point x="1191" y="710" type="qcurve" smooth="yes"/>
      <point x="1191" y="691" type="line"/>
      <point x="1186" y="407"/>
      <point x="1009" y="203" type="qcurve" smooth="yes"/>
      <point x="962" y="151"/>
      <point x="912" y="112" type="qcurve" smooth="yes"/>
      <point x="766" y="0"/>
      <point x="578" y="0" type="qcurve" smooth="yes"/>
      <point x="489" y="0"/>
      <point x="340" y="58"/>
      <point x="180" y="199"/>
    </contour>
  </outline>
</glyph>
<glyph name="glyph119" format="1">
  <advance width="0"/>
  <outline>
    <contour>
      <point x="-365" y="90" type="qcurve"/>
      <point x="-345" y="120"/>
      <point x="-294" y="120" type="qcurve" smooth="yes"/>
      <point x="-282" y="120" type="line"/>
      <point x="-221" y="116"/>
      <point x="-192" y="54" type="qcurve" smooth="yes"/>
      <point x="-181" y="27"/>
      <point x="-181" y="1" type="qcurve" smooth="yes"/>
      <point x="-181" y="-35"/>
      <point x="-203" y="-72" type="qcurve" smooth="yes"/>
      <point x="-243" y="-135"/>
      <point x="-381" y="-135" type="qcurve" smooth="yes"/>
      <point x="-527" y="-134"/>
      <point x="-564" y="26" type="qcurve" smooth="yes"/>
      <point x="-577" y="78"/>
      <point x="-577" y="123" type="qcurve" smooth="yes"/>
      <point x="-577" y="218"/>
      <point x="-524" y="285" type="qcurve" smooth="yes"/>
      <point x="-454" y="375"/>
      <point x="-339" y="375" type="qcurve" smooth="yes"/>
      <point x="-314" y="375" type="line"/>
      <point x="-181" y="364"/>
      <point x="-131" y="364" type="qcurve" smooth="yes"/>
      <point x="-81" y="364"/>
      <point x="-41" y="440"/>
      <point x="-37" y="497" type="qcurve"/>
      <point x="104" y="477" type="line"/>
      <point x="103" y="346"/>
      <point x="25" y="201"/>
      <point x="-64" y="189" type="qcurve" smooth="yes"/>
      <point x="-111" y="183"/>
      <point x="-164" y="183" type="qcurve" smooth="yes"/>
      <point x="-213" y="183"/>
      <point x="-266" y="188" type="qcurve" smooth="yes"/>
      <point x="-277" y="189"/>
      <point x="-286" y="189" type="qcurve" smooth="yes"/>
      <point x="-367" y="189"/>
      <point x="-367" y="113" type="qcurve" smooth="yes"/>
      <point x="-367" y="102"/>
    </contour>
  </outline>
</glyph>
<glyph name="glyph120" format="1">
  <advance width="0"/>
  <outline>
    <contour>
      <point x="-115" y="250" type="qcurve"/>
      <point x="-194" y="197"/>
      <point x="-228" y="124" type="qcurve" smooth="yes"/>
      <point x="-250" y="76"/>
      <point x="-250" y="47" type="qcurve" smooth="yes"/>
      <point x="-250" y="32"/>
      <point x="-244" y="23" type="qcurve" smooth="yes"/>
      <point x="-235" y="7"/>
      <point x="-211" y="7" type="qcurve" smooth="yes"/>
      <point x="-192" y="7"/>
      <point x="-164" y="17" type="qcurve" smooth="yes"/>
      <point x="-101" y="39"/>
      <point x="-96" y="136" type="qcurve"/>
      <point x="-96" y="141" type="line" smooth="yes"/>
      <point x="-96" y="190"/>
    </contour>
    <contour>
      <point x="11" y="320" type="line" smooth="yes"/>
      <point x="32" y="260"/>
      <point x="35" y="209" type="qcurve" smooth="yes"/>
      <point x="38" y="176"/>
      <point x="38" y="146" type="qcurve" smooth="yes"/>
      <point x="38" y="6"/>
      <point x="-26" y="-79" type="qcurve"/>
      <point x="-102" y="-172"/>
      <point x="-194" y="-173" type="qcurve" smooth="yes"/>
      <point x="-196" y="-173" type="line" smooth="yes"/>
      <point x="-286" y="-173"/>
      <point x="-337" y="-111" type="qcurve" smooth="yes"/>
      <point x="-382" y="-58"/>
      <point x="-382" y="23" type="qcurve" smooth="yes"/>
      <point x="-382" y="36"/>
      <point x="-381" y="50" type="qcurve" smooth="yes"/>
      <point x="-372" y="149"/>
      <point x="-315" y="228" type="qcurve" smooth="yes"/>
      <point x="-235" y="339"/>
      <point x="-154" y="378" type="qcurve"/>
      <point x="-172" y="420"/>
      <point x="-199" y="469" type="qcurve"/>
      <point x="-77" y="515" type="line"/>
      <point x="-44" y="456"/>
      <point x="-19" y="401" type="qcurve"/>
    </contour>
  </outline>
</glyph>
<glyph name="uniAA29_uniAA2E.liga" format="1">
  <advance width="4"/>
  <outline>
    <contour>
      <point x="52" y="1601" type="qcurve"/>
      <point x="119" y="1607"/>
      <point x="161" y="1656" type="qcurve"/>
      <point x="242" y="1583" type="line"/>
      <point x="146" y="1456"/>
      <point x="-53" y="1456" type="qcurve" smooth="yes"/>
      <point x="-107" y="1456"/>
      <point x="-169" y="1465" type="qcurve"/>
      <point x="-187" y="1574" type="line"/>
      <point x="-83" y="1588"/>
      <point x="-83" y="1654" type="qcurve" smooth="yes"/>
      <point x="-83" y="1720"/>
      <point x="-253" y="1720" type="qcurve" smooth="yes"/>
      <point x="-403" y="1720"/>
      <point x="-403" y="1621" type="qcurve" smooth="yes"/>
      <point x="-403" y="1522"/>
      <point x="-96" y="1322"/>
      <point x="-94" y="1145" type="qcurve" smooth="yes"/>
      <point x="-94" y="955" type="line"/>
      <point x="-246" y="955" type="line"/>
      <point x="-246" y="1145" type="line" smooth="yes"/>
      <point x="-246" y="1270"/>
      <point x="-553" y="1460"/>
      <point x="-553" y="1680" type="qcurve" smooth="yes"/>
      <point x="-553" y="1990"/>
      <point x="-238" y="1990" type="qcurve" smooth="yes"/>
      <point x="67" y="1990"/>
      <point x="67" y="1710" type="qcurve" smooth="yes"/>
      <point x="67" y="1648"/>
    </contour>
  </outline>
</glyph>
<glyph name="uniAA2E_uniAA43.liga" format="1">
  <advance width="0"/>
  <outline>
    <contour>
      <point x="-481" y="1672" type="line"/>
      <point x="-393" y="1724" type="line" smooth="yes"/>
      <point x="-81" y="1913"/>
      <point x="-39" y="2004" type="qcurve"/>
      <point x="14" y="1999" type="line"/>
      <point x="-25" y="1801"/>
      <point x="-310" y="1643" type="qcurve"/>
      <point x="-421" y="1572" type="line"/>
    </contour>
    <contour>
      <point x="-420" y="1535" type="line"/>
      <point x="-230" y="1572" type="line" smooth="yes"/>
      <point x="-3" y="1620"/>
      <point x="-3" y="1765" type="qcurve" smooth="yes"/>
      <point x="-3" y="1789"/>
      <point x="-9" y="1816" type="qcurve"/>
      <point x="143" y="1798" type="line"/>
      <point x="146" y="1778"/>
      <point x="146" y="1759" type="qcurve" smooth="yes"/>
      <point x="144" y="1511"/>
      <point x="-68" y="1449" type="qcurve" smooth="yes"/>
      <point x="-267" y="1390"/>
      <point x="-345" y="1390" type="qcurve" smooth="yes"/>
      <point x="-355" y="1390" type="line"/>
    </contour>
  </outline>
</glyph>
<glyph name="uniAA31_uniAA4C.liga" format="1">
  <advance width="0"/>
  <outline>
    <contour>
      <point x="-322" y="1997" type="qcurve" smooth="yes"/>
      <point x="-298" y="1997"/>
      <point x="-254" y="1972"/>
      <point x="-229" y="1927"/>
      <point x="-229" y="1902" type="qcurve" smooth="yes"/>
      <point x="-229" y="1877"/>
      <point x="-253" y="1832"/>
      <point x="-297" y="1807"/>
      <point x="-322" y="1807" type="qcurve" smooth="yes"/>
      <point x="-346" y="1807"/>
      <point x="-390" y="1832"/>
      <point x="-415" y="1877"/>
      <point x="-415" y="1902" type="qcurve" smooth="yes"/>
      <point x="-415" y="1927"/>
      <point x="-389" y="1972"/>
      <point x="-345" y="1997"/>
    </contour>
    <contour>
      <point x="-90" y="1947" type="qcurve"/>
      <point x="1" y="1908" type="line"/>
      <point x="1" y="1799"/>
      <point x="-82" y="1671" type="qcurve" smooth="yes"/>
      <point x="-117" y="1622"/>
      <point x="-218" y="1622" type="qcurve" smooth="yes"/>
      <point x="-245" y="1622"/>
      <point x="-278" y="1626" type="qcurve" smooth="yes"/>
      <point x="-331" y="1634"/>
      <point x="-371" y="1634" type="qcurve" smooth="yes"/>
      <point x="-432" y="1634"/>
      <point x="-463" y="1615" type="qcurve"/>
      <point x="-493" y="1571"/>
      <point x="-493" y="1533" type="qcurve" smooth="yes"/>
      <point x="-493" y="1492"/>
      <point x="-458" y="1459" type="qcurve" smooth="yes"/>
      <point x="-414" y="1415"/>
      <point x="-356" y="1415" type="qcurve" smooth="yes"/>
      <point x="-327" y="1415"/>
      <point x="-294" y="1426" type="qcurve" smooth="yes"/>
      <point x="-198" y="1459"/>
      <point x="-168" y="1579" type="qcurve"/>
      <point x="4" y="1551" type="line"/>
      <point x="9" y="1518"/>
      <point x="9" y="1484" type="qcurve" smooth="yes"/>
      <point x="9" y="1369"/>
      <point x="-38" y="1200" type="qcurve"/>
      <point x="-182" y="1182" type="line"/>
      <point x="-167" y="1274"/>
      <point x="-152" y="1356" type="qcurve"/>
      <point x="-162" y="1327"/>
      <point x="-197" y="1296" type="qcurve" smooth="yes"/>
      <point x="-294" y="1196"/>
      <point x="-388" y="1196" type="qcurve" smooth="yes"/>
      <point x="-473" y="1196"/>
      <point x="-555" y="1275" type="qcurve" smooth="yes"/>
      <point x="-653" y="1370"/>
      <point x="-653" y="1482" type="qcurve" smooth="yes"/>
      <point x="-653" y="1570"/>
      <point x="-585" y="1683" type="qcurve" smooth="yes"/>
      <point x="-527" y="1780"/>
      <point x="-350" y="1780" type="qcurve" smooth="yes"/>
      <point x="-322" y="1780"/>
      <point x="-291" y="1778" type="qcurve"/>
      <point x="-274" y="1772"/>
      <point x="-258" y="1772" type="qcurve" smooth="yes"/>
      <point x="-169" y="1772"/>
    </contour>
  </outline>
</glyph>
